<svg width="132" height="132" viewBox="0 0 132 132" fill="none" xmlns="http://www.w3.org/2000/svg">
<g filter="url(#filter0_d)">
<rect x="12" y="12" width="100" height="100" rx="7" fill="white"/>
</g>
<path d="M83.8182 55.4545H80.518C80.2871 54.8017 80.0212 54.161 79.7215 53.5351L82.056 51.2004C82.9081 50.3485 82.9081 48.967 82.056 48.1149L75.8851 41.9439C75.0332 41.0918 73.6516 41.0918 72.7996 41.9439L70.4649 44.2784C69.839 43.9788 69.1984 43.713 68.5455 43.4819V40.1818C68.5455 38.9769 67.5686 38 66.3636 38H57.6364C56.4314 38 55.4545 38.9769 55.4545 40.1818V43.482C54.8017 43.713 54.161 43.9788 53.5353 44.2784L51.2006 41.9439C50.3487 41.0916 48.9671 41.0918 48.1151 41.9439L41.9439 48.1149C41.5347 48.5241 41.3047 49.079 41.3047 49.6576C41.3047 50.2362 41.5345 50.7913 41.9439 51.2003L44.2785 53.535C43.9789 54.161 43.713 54.8016 43.482 55.4544H40.1818C38.9769 55.4544 38 56.4313 38 57.6362V66.3635C38 67.5684 38.9769 68.5453 40.1818 68.5453H43.482C43.713 69.1981 43.9789 69.8388 44.2785 70.4647L41.9439 72.7994C41.5347 73.2086 41.3047 73.7635 41.3047 74.3421C41.3047 74.9207 41.5345 75.4758 41.9439 75.8848L48.1152 82.0559C48.9673 82.9081 50.3487 82.9078 51.2007 82.0559L53.5354 79.7213C54.1612 80.0209 54.8017 80.2867 55.4545 80.5177V83.8182C55.4545 85.0231 56.4314 86 57.6364 86H66.3636C67.5686 86 68.5455 85.0231 68.5455 83.8182V80.518C69.1984 80.2868 69.8391 80.0211 70.4649 79.7215L72.7996 82.056C73.6515 82.9079 75.033 82.9079 75.8851 82.056L82.0561 75.8849C82.9082 75.033 82.9082 73.6515 82.0561 72.7994L79.7216 70.4647C80.0214 69.8387 80.2873 69.1981 80.5181 68.5453H83.8182C85.0231 68.5453 86 67.5684 86 66.3635V57.6362C86 56.4314 85.0231 55.4545 83.8182 55.4545ZM81.6364 64.1818H78.9046C77.9089 64.1818 77.0396 64.8559 76.7916 65.8201C76.4372 67.1978 75.8879 68.522 75.1585 69.7561C74.6521 70.6134 74.7901 71.7046 75.4943 72.4087L77.4279 74.3424L74.3424 77.4279L72.4087 75.4943C71.7047 74.7903 70.6135 74.6524 69.7561 75.1585C68.5228 75.8874 67.1984 76.4368 65.8198 76.7917C64.8557 77.0399 64.1818 77.9092 64.1818 78.9046V81.6364H59.8182V78.9046C59.8182 77.9091 59.1443 77.0399 58.1802 76.7917C56.8019 76.4368 55.4778 75.8874 54.2442 75.1585C53.3868 74.6521 52.2957 74.7901 51.5916 75.4943L49.6579 77.4279L46.5721 74.3424L48.5057 72.4087C49.2099 71.7047 49.3479 70.6134 48.8415 69.7562C48.1126 68.5226 47.5631 67.1981 47.2083 65.8198C46.9603 64.8557 46.0909 64.1818 45.0954 64.1818H42.3636V59.8182H45.0954C46.0909 59.8182 46.9601 59.1443 47.2083 58.1802C47.5631 56.8019 48.1126 55.4775 48.8415 54.2438C49.3479 53.3865 49.2099 52.2951 48.5057 51.5913L46.5722 49.6576L49.6579 46.5721L51.5916 48.5057C52.2956 49.2097 53.3872 49.3479 54.2442 48.8415C55.4775 48.1126 56.8019 47.5632 58.1804 47.2083C59.1443 46.9603 59.8182 46.0909 59.8182 45.0954V42.3636H64.1818V45.0954C64.1818 46.0909 64.8557 46.9601 65.8198 47.2083C67.1984 47.5632 68.5228 48.1126 69.7561 48.8415C70.6132 49.3476 71.7046 49.2099 72.4087 48.5057L74.3424 46.5721L77.4279 49.6576L75.4941 51.5913C74.79 52.2954 74.6519 53.3868 75.1584 54.2439C75.8877 55.4778 76.4369 56.8022 76.7914 58.1799C77.0394 59.1441 77.9089 59.8182 78.9044 59.8182H81.6364V64.1818Z" fill="#FF5454"/>
<path d="M67.6654 60.1499L60.6835 55.7863C60.011 55.3658 59.1631 55.3437 58.4694 55.7281C57.7756 56.1127 57.3452 56.8433 57.3452 57.6365V66.3637C57.3452 67.1569 57.7756 67.8877 58.4694 68.2721C58.799 68.4546 59.1633 68.5456 59.527 68.5456C59.9291 68.5456 60.3304 68.4346 60.6834 68.2139L67.6652 63.8503C68.3032 63.4516 68.6907 62.7524 68.6907 62.0001C68.6907 61.2478 68.3033 60.5486 67.6654 60.1499Z" fill="#FF5454"/>
<defs>
<filter id="filter0_d" x="0" y="0" width="132" height="132" filterUnits="userSpaceOnUse" color-interpolation-filters="sRGB">
<feFlood flood-opacity="0" result="BackgroundImageFix"/>
<feColorMatrix in="SourceAlpha" type="matrix" values="0 0 0 0 0 0 0 0 0 0 0 0 0 0 0 0 0 0 127 0"/>
<feOffset dx="4" dy="4"/>
<feGaussianBlur stdDeviation="8"/>
<feColorMatrix type="matrix" values="0 0 0 0 1 0 0 0 0 0.329412 0 0 0 0 0.329412 0 0 0 0.16 0"/>
<feBlend mode="normal" in2="BackgroundImageFix" result="effect1_dropShadow"/>
<feBlend mode="normal" in="SourceGraphic" in2="effect1_dropShadow" result="shape"/>
</filter>
</defs>
</svg>
