<svg width="132" height="132" viewBox="0 0 132 132" fill="none" xmlns="http://www.w3.org/2000/svg">
<g filter="url(#filter0_d)">
<rect x="12" y="12" width="100" height="100" rx="7" fill="white"/>
</g>
<path d="M85.2172 57.2966C84.5192 56.2407 83.4511 55.5249 82.2084 55.2816C80.9665 55.0383 79.7077 55.2985 78.6631 56.0134L70.9874 61.2627C71.1753 61.7192 71.304 62.2058 71.3623 62.7131C71.3877 62.9245 71.3998 63.1386 71.3998 63.3566V63.3753C71.3998 63.4214 71.3989 63.4674 71.397 63.5134C71.397 63.5228 71.397 63.5312 71.3961 63.5407C71.3867 63.8592 71.3491 64.1702 71.2862 64.4726C71.2243 64.775 71.1378 65.0682 71.0278 65.3509C70.2266 67.4176 68.2163 68.8868 65.8697 68.8868H58.8675V66.0687H65.8697C67.0552 66.0687 68.0651 65.305 68.4324 64.2435C68.5282 64.0668 68.5817 63.8658 68.5817 63.6516C68.5817 63.6103 68.5798 63.5689 68.5752 63.5285C68.5798 63.4778 68.5817 63.4271 68.5808 63.3754C68.5817 63.3689 68.5817 63.3632 68.5817 63.3567C68.5817 62.3421 68.0218 61.4553 67.1942 60.9913C66.8025 60.7705 66.3507 60.6447 65.8697 60.6447H61.3784H60.8458L60.5462 60.1057C60.5029 60.0278 60.4509 59.9552 60.3891 59.891C60.3885 59.8905 60.3881 59.8899 60.3875 59.8894C60.0296 59.5174 58.8037 58.517 55.9648 58.517C52.4892 58.517 51.1984 59.8885 51.1449 59.9477C51.1364 59.9571 51.1271 59.9665 51.1185 59.976C51.0688 60.0295 51.019 60.0821 50.9683 60.1337L48.2065 62.9575L48.1182 62.7874L47.4324 61.4742L46.8349 60.3291L46.5776 59.8368L38 64.3148L46.2863 80.1867L54.8638 75.7086L53.976 74.0084H69.5717L84.0298 63.6939C86.0937 62.2218 86.615 59.4112 85.2172 57.2966Z" fill="#4894CD"/>
<path d="M69.9966 43.8136C66.9859 43.8136 64.459 45.9234 63.8164 48.7425C63.8164 48.7426 63.8164 48.7428 63.8163 48.7429H49.4056L49.4053 53.3571H52.2234V51.5611H54.7127V53.9242H57.5309V51.5611H63.8164C64.4592 54.3809 66.9859 56.4906 69.9965 56.4906C73.492 56.4906 76.3355 53.647 76.3355 50.1516C76.3355 46.6571 73.492 43.8136 69.9966 43.8136ZM69.9966 53.6724C68.0559 53.6724 66.4768 52.0933 66.4768 50.1517C66.4768 48.2108 68.0559 46.6318 69.9966 46.6318C71.9384 46.6318 73.5174 48.2109 73.5174 50.1517C73.5174 52.0933 71.9383 53.6724 69.9966 53.6724Z" fill="#4894CD"/>
<defs>
<filter id="filter0_d" x="0" y="0" width="132" height="132" filterUnits="userSpaceOnUse" color-interpolation-filters="sRGB">
<feFlood flood-opacity="0" result="BackgroundImageFix"/>
<feColorMatrix in="SourceAlpha" type="matrix" values="0 0 0 0 0 0 0 0 0 0 0 0 0 0 0 0 0 0 127 0"/>
<feOffset dx="4" dy="4"/>
<feGaussianBlur stdDeviation="8"/>
<feColorMatrix type="matrix" values="0 0 0 0 0.282353 0 0 0 0 0.580392 0 0 0 0 0.803922 0 0 0 0.16 0"/>
<feBlend mode="normal" in2="BackgroundImageFix" result="effect1_dropShadow"/>
<feBlend mode="normal" in="SourceGraphic" in2="effect1_dropShadow" result="shape"/>
</filter>
</defs>
</svg>
