<svg width="132" height="132" viewBox="0 0 132 132" fill="none" xmlns="http://www.w3.org/2000/svg">
<g filter="url(#filter0_d)">
<rect x="12" y="12" width="100" height="100" rx="7" fill="white"/>
</g>
<path d="M42.2188 74.75H66.2188C66.6705 74.75 67.0949 74.5331 67.36 74.1663C67.6237 73.7982 67.6964 73.3272 67.5522 72.8987L56.3036 38.9627C56.1127 38.3873 55.5744 38 54.9688 38H42.2188C39.8924 38 38 39.8924 38 42.2188V70.5312C38 72.8576 39.8924 74.75 42.2188 74.75ZM49.3438 49.4375C51.2238 49.4375 52.9885 50.1695 54.3164 51.4975C54.8644 52.0482 54.8644 52.938 54.315 53.4874C53.7657 54.034 52.8745 54.0354 52.3251 53.486C51.53 52.6881 50.4712 52.25 49.3438 52.25C47.0174 52.25 45.125 54.1424 45.125 56.4688C45.125 58.7951 47.0174 60.6875 49.3438 60.6875C51.1747 60.6875 52.721 59.5083 53.3035 57.875H50.75C49.9727 57.875 49.3438 57.246 49.3438 56.4688C49.3438 55.6915 49.9727 55.0625 50.75 55.0625H54.9688C55.746 55.0625 56.375 55.6915 56.375 56.4688C56.375 60.3456 53.2206 63.5 49.3438 63.5C45.4669 63.5 42.3125 60.3456 42.3125 56.4688C42.3125 52.5919 45.4669 49.4375 49.3438 49.4375Z" fill="#00D19C"/>
<path d="M81.7812 49.4375H62.7495L70.2225 71.9187C70.5538 72.9149 70.4951 74.0351 70.0614 74.9916L65.07 86H81.7812C84.1112 86 86 84.1112 86 81.7812V53.6562C86 51.3263 84.1112 49.4375 81.7812 49.4375ZM80.2812 63.4059H80.1138C79.6934 65.279 78.4797 67.5206 76.4891 70.0938C77.5878 71.3751 78.4487 72.2408 78.4634 72.2556C79.0122 72.805 79.0119 73.6953 78.4628 74.2442C78.1882 74.5186 77.8284 74.6559 77.4686 74.6559C77.1088 74.6559 76.749 74.5186 76.4745 74.244C76.4165 74.186 75.6682 73.4343 74.6685 72.2906C73.6443 73.4503 72.8773 74.2059 72.8288 74.2534C72.555 74.522 72.1993 74.6559 71.8439 74.6559C71.4795 74.6559 71.1154 74.5152 70.84 74.2346C70.2961 73.6802 70.3045 72.7899 70.8589 72.2459C71.4668 71.6488 72.1595 70.9105 72.8622 70.0953C72.45 69.5602 72.0364 68.9955 71.6419 68.4154C71.2052 67.7731 71.3718 66.8985 72.014 66.4618C72.6562 66.025 73.5308 66.1917 73.9675 66.8338C74.1968 67.171 74.4344 67.5035 74.6751 67.8284C75.7925 66.3118 76.7532 64.7356 77.2005 63.4059H69.0312C68.2546 63.4059 67.625 62.7762 67.625 61.9996C67.625 61.223 68.2546 60.5934 69.0312 60.5934H73.25V59.1871C73.25 58.4105 73.8796 57.7809 74.6562 57.7809C75.4329 57.7809 76.0625 58.4105 76.0625 59.1871V60.5934H80.2812C81.0579 60.5934 81.6875 61.223 81.6875 61.9996C81.6875 62.7762 81.0579 63.4059 80.2812 63.4059Z" fill="#00D19C"/>
<path d="M57.2515 77.5625C59.9094 85.5984 59.6902 85.5238 60.4628 85.8742C60.6512 85.9596 60.8485 86.0001 61.0427 86C61.5777 86 62.089 85.6931 62.3243 85.1742L65.7755 77.5625H57.2515Z" fill="#00D19C"/>
<defs>
<filter id="filter0_d" x="0" y="0" width="132" height="132" filterUnits="userSpaceOnUse" color-interpolation-filters="sRGB">
<feFlood flood-opacity="0" result="BackgroundImageFix"/>
<feColorMatrix in="SourceAlpha" type="matrix" values="0 0 0 0 0 0 0 0 0 0 0 0 0 0 0 0 0 0 127 0"/>
<feOffset dx="4" dy="4"/>
<feGaussianBlur stdDeviation="8"/>
<feColorMatrix type="matrix" values="0 0 0 0 0.470588 0 0 0 0 0.878431 0 0 0 0 0.352941 0 0 0 0.16 0"/>
<feBlend mode="normal" in2="BackgroundImageFix" result="effect1_dropShadow"/>
<feBlend mode="normal" in="SourceGraphic" in2="effect1_dropShadow" result="shape"/>
</filter>
</defs>
</svg>
