<svg width="132" height="132" viewBox="0 0 132 132" fill="none" xmlns="http://www.w3.org/2000/svg">
<g filter="url(#filter0_d)">
<rect x="12" y="12" width="100" height="100" rx="7" fill="white"/>
</g>
<g clip-path="url(#clip0)">
<path d="M85.3735 55.8815L80.496 60.759C79.7634 61.4916 78.5146 61.2054 78.1737 60.2274C77.6789 58.8073 75.8465 58.3703 74.7663 59.4505C73.6866 60.5303 74.1227 62.3632 75.5432 62.8579C76.5217 63.199 76.8071 64.4479 76.0748 65.1802L71.1479 70.1071C70.3127 70.9423 68.9536 70.9423 68.1183 70.1071L64.4774 66.4662C62.5699 68.448 59.4276 68.4546 57.5112 66.5381C55.597 64.6239 55.5991 61.4815 57.5832 59.5719L53.8928 55.8815C53.0576 55.0463 53.0576 53.6872 53.8928 52.8519L57.5832 49.1615C55.6015 47.2541 55.5947 44.1118 57.5112 42.1953C59.4255 40.2809 62.5681 40.2834 64.4774 42.2672L68.1183 38.6263C68.9535 37.7911 70.3126 37.7911 71.1479 38.6263L76.0748 43.5532C76.8061 44.2845 76.5231 45.5338 75.5432 45.8755C74.1234 46.37 73.6862 48.2028 74.7663 49.2829C75.8459 50.3625 77.6786 49.9271 78.1737 48.506C78.5148 47.5277 79.7635 47.242 80.496 47.9744L85.3735 52.8519C86.2087 53.6872 86.2087 55.0463 85.3735 55.8815Z" fill="#C0A8FF"/>
<path d="M64.1151 70.1012C61.2864 71.3708 57.8418 70.8461 55.5225 68.5268C53.2032 66.2076 52.6786 62.763 53.9481 59.9343L50.3793 56.3655L49.2111 57.5337C47.2992 55.5482 44.1577 55.549 42.2449 57.4618C40.3339 59.3728 40.3296 62.5141 42.3169 64.428L38.6264 68.1183C37.7912 68.9535 37.7912 70.3126 38.6264 71.1478L42.3168 74.8382C40.3432 76.7351 40.3208 79.8803 42.2448 81.8044C44.1653 83.7249 47.3104 83.7098 49.211 81.7324L52.8519 85.3733C53.6871 86.2085 55.0462 86.2085 55.8815 85.3733L60.8083 80.4465C61.541 79.7139 61.2548 78.4651 60.2768 78.1242C58.8576 77.6302 58.4192 75.7976 59.4998 74.7168C60.5795 73.6372 62.4121 74.0726 62.9072 75.4937C63.2484 76.4722 64.4972 76.7577 65.2295 76.0253L67.6343 73.6205L64.1151 70.1012Z" fill="#C0A8FF"/>
</g>
<defs>
<filter id="filter0_d" x="0" y="0" width="132" height="132" filterUnits="userSpaceOnUse" color-interpolation-filters="sRGB">
<feFlood flood-opacity="0" result="BackgroundImageFix"/>
<feColorMatrix in="SourceAlpha" type="matrix" values="0 0 0 0 0 0 0 0 0 0 0 0 0 0 0 0 0 0 127 0"/>
<feOffset dx="4" dy="4"/>
<feGaussianBlur stdDeviation="8"/>
<feColorMatrix type="matrix" values="0 0 0 0 0.529412 0 0 0 0 0.392157 0 0 0 0 0.819608 0 0 0 0.16 0"/>
<feBlend mode="normal" in2="BackgroundImageFix" result="effect1_dropShadow"/>
<feBlend mode="normal" in="SourceGraphic" in2="effect1_dropShadow" result="shape"/>
</filter>
<clipPath id="clip0">
<rect width="48" height="48" fill="white" transform="translate(38 38)"/>
</clipPath>
</defs>
</svg>
