<svg width="70" height="70" viewBox="0 0 70 70" fill="none" xmlns="http://www.w3.org/2000/svg">
<rect width="70" height="70" rx="7" fill="#FCD9D9"/>
<g clip-path="url(#clip0)">
<path d="M44.1813 32.2441V21.0863C44.1813 20.534 43.7336 20.0863 43.1813 20.0863H26.8187C26.2664 20.0863 25.8187 20.534 25.8187 21.0863V32.2441H21.2546C20.3874 32.2441 19.9312 33.2725 20.5133 33.9153L34.2588 49.0949C34.6557 49.5333 35.3443 49.5333 35.7413 49.0949L49.4867 33.9153C50.0688 33.2725 49.6126 32.2441 48.7454 32.2441H44.1813ZM37.2982 37.5298C36.9182 37.9466 36.4543 38.2241 35.9173 38.3563V39.4973H34.2846V38.3659C33.0946 38.064 32.2091 37.1135 31.9443 35.8294L31.8999 35.6138L33.3966 34.708L33.5083 35.101C33.8517 36.3089 34.2982 36.7795 35.101 36.7795C35.5272 36.7795 35.8326 36.654 36.0623 36.3845C36.2376 36.1702 36.3285 35.8842 36.3285 35.5395C36.3285 34.9967 35.9531 34.6347 34.8408 34.1049C34.1014 33.7689 33.7509 33.5545 33.2828 33.1513C32.7601 32.6868 32.5183 32.1197 32.5183 31.3633C32.5183 30.2103 33.2326 29.237 34.2847 28.9132V27.7713H35.9174V28.9226C36.628 29.1303 37.1846 29.6226 37.5742 30.3894L37.7013 30.6396L36.2913 31.5532L36.1287 31.2635C35.7591 30.6052 35.435 30.4764 35.0001 30.4764C34.5876 30.4764 34.2521 30.8346 34.2521 31.2749C34.2521 31.5698 34.316 31.7908 34.6417 32.0452L34.6596 32.0574C34.8442 32.1844 34.9904 32.2849 35.1087 32.3497L35.787 32.7015C36.2862 32.951 36.5479 33.087 36.9924 33.4236C37.7017 33.9519 38.0222 34.5735 38.0619 35.5008L38.0622 35.5142C38.0622 36.3025 37.8051 36.9806 37.2982 37.5298Z" fill="#FF5454"/>
</g>
<defs>
<clipPath id="clip0">
<rect width="32" height="32" fill="white" transform="translate(19 19)"/>
</clipPath>
</defs>
</svg>
