<svg width="70" height="70" viewBox="0 0 70 70" fill="none" xmlns="http://www.w3.org/2000/svg">
<rect width="70" height="70" rx="7" fill="#FCD9D9"/>
<g clip-path="url(#clip0)">
<path d="M50.344 19.004C44.0973 18.892 36.9733 22.1573 32.464 27.2227C28.1547 27.304 23.9587 29.0707 20.8693 32.16C20.6893 32.3373 20.6253 32.6027 20.704 32.8427C20.784 33.084 20.992 33.2587 21.2427 33.2947L26.3813 34.0307L25.7467 34.7413C25.5107 35.0053 25.5227 35.4067 25.7733 35.6573L34.3427 44.2267C34.472 44.356 34.6427 44.4213 34.8147 44.4213C34.9733 44.4213 35.132 44.3653 35.2587 44.252L35.9693 43.6173L36.7053 48.756C36.7413 49.0067 36.9387 49.1907 37.1773 49.2707C37.2387 49.2907 37.3027 49.3 37.368 49.3C37.5573 49.3 37.7507 49.2173 37.884 49.0853C40.9307 46.0387 42.6973 41.8427 42.7787 37.5333C47.8493 33.0147 51.1413 25.8933 50.996 19.6547C50.9867 19.3 50.7 19.0133 50.344 19.004ZM44.2 30.5133C43.5507 31.1627 42.6973 31.488 41.8427 31.488C40.988 31.488 40.1347 31.1627 39.4853 30.5133C38.1867 29.2133 38.1867 27.0987 39.4853 25.7987C40.7853 24.4987 42.9 24.4987 44.2 25.7987C45.5 27.0987 45.5 29.2147 44.2 30.5133Z" fill="#FF5454"/>
<path d="M22.6321 41.54C21.2054 42.9667 19.2467 49.412 19.0281 50.1413C18.9574 50.376 19.0227 50.6307 19.1947 50.804C19.3227 50.932 19.4921 51 19.6667 51C19.7307 51 19.7947 50.9907 19.8587 50.972C20.5881 50.7533 27.0334 48.7947 28.4601 47.368C30.0667 45.7613 30.0667 43.1467 28.4601 41.54C26.8521 39.9333 24.2387 39.9346 22.6321 41.54Z" fill="#FF5454"/>
</g>
<defs>
<clipPath id="clip0">
<rect width="32" height="32" fill="white" transform="translate(19 19)"/>
</clipPath>
</defs>
</svg>
