<svg width="70" height="70" viewBox="0 0 70 70" fill="none" xmlns="http://www.w3.org/2000/svg">
<rect width="70" height="70" rx="7" fill="#FCD9D9"/>
<g clip-path="url(#clip0)">
<path d="M35 31.9144C38.003 31.9144 40.4375 29.48 40.4375 26.4769C40.4375 23.4739 38.003 21.0394 35 21.0394C31.997 21.0394 29.5625 23.4739 29.5625 26.4769C29.5625 29.48 31.997 31.9144 35 31.9144Z" fill="#FF5454"/>
<path d="M46 31.9143C47.8985 31.9143 49.4375 30.3753 49.4375 28.4768C49.4375 26.5783 47.8985 25.0393 46 25.0393C44.1015 25.0393 42.5625 26.5783 42.5625 28.4768C42.5625 30.3753 44.1015 31.9143 46 31.9143Z" fill="#FF5454"/>
<path d="M24 31.9143C25.8985 31.9143 27.4375 30.3753 27.4375 28.4768C27.4375 26.5783 25.8985 25.0393 24 25.0393C22.1015 25.0393 20.5625 26.5783 20.5625 28.4768C20.5625 30.3753 22.1015 31.9143 24 31.9143Z" fill="#FF5454"/>
<path d="M27.3869 35.0013C26.0338 33.8927 24.8083 34.0395 23.2438 34.0395C20.9038 34.0395 19 35.9319 19 38.2576V45.0832C19 46.0932 19.8244 46.9144 20.8381 46.9144C25.2148 46.9144 24.6875 46.9936 24.6875 46.7257C24.6875 41.8891 24.1146 38.3421 27.3869 35.0013Z" fill="#FF5454"/>
<path d="M36.4881 34.0644C33.7553 33.8365 31.38 34.067 29.3312 35.7582C25.9026 38.5044 26.5624 42.2021 26.5624 46.7256C26.5624 47.9225 27.5362 48.9144 28.7512 48.9144C41.9438 48.9144 42.4689 49.34 43.2512 47.6075C43.5078 47.0216 43.4374 47.2078 43.4374 41.6032C43.4374 37.1515 39.5829 34.0644 36.4881 34.0644Z" fill="#FF5454"/>
<path d="M46.7562 34.0394C45.183 34.0394 43.9643 33.8942 42.613 35.0013C45.8609 38.3173 45.3124 41.6222 45.3124 46.7256C45.3124 46.9953 44.8747 46.9144 49.0962 46.9144C50.1462 46.9144 50.9999 46.0638 50.9999 45.0182V38.2575C50.9999 35.9319 49.0962 34.0394 46.7562 34.0394Z" fill="#FF5454"/>
</g>
<defs>
<clipPath id="clip0">
<rect width="32" height="32" fill="white" transform="translate(19 19)"/>
</clipPath>
</defs>
</svg>
