<svg width="70" height="70" viewBox="0 0 70 70" fill="none" xmlns="http://www.w3.org/2000/svg">
<rect width="70" height="70" rx="7" fill="#FCD9D9"/>
<g clip-path="url(#clip0)">
<path d="M50.0672 40.6664C50.0446 40.6657 50.022 40.6657 49.9994 40.6664H47.6661V29.0002C47.6849 28.4667 47.2676 28.019 46.734 28.0003C46.7114 27.9995 46.6888 27.9995 46.6662 28.0003H41.6664V22.3338C41.6851 21.8003 41.2678 21.3526 40.7343 21.3339C40.7117 21.3331 40.689 21.3331 40.6664 21.3339H28.6669C28.1334 21.3151 27.6857 21.7324 27.6669 22.266C27.6662 22.2886 27.6662 22.3112 27.6669 22.3338V28.0003H23.3338C22.8003 27.9815 22.3526 28.3988 22.3338 28.9324C22.333 28.955 22.333 28.9776 22.3338 29.0002V40.6664H20.0006C19.4671 40.6477 19.0194 41.065 19.0006 41.5986C18.9998 41.6212 18.9998 41.6438 19.0006 41.6664V47.6662C18.9819 48.1997 19.3992 48.6474 19.9327 48.6661C19.9553 48.6669 19.978 48.6669 20.0006 48.6661H26.667C27.2005 48.6849 27.6482 48.2676 27.6669 47.734C27.6677 47.7114 27.6677 47.6888 27.6669 47.6662V41.6664C27.6857 41.1329 27.2684 40.6852 26.7348 40.6664C26.7122 40.6657 26.6896 40.6657 26.667 40.6664H24.3337V30.0002H27.6669V32.3334C27.6482 32.8669 28.0655 33.3146 28.5991 33.3334C28.6216 33.3342 28.6443 33.3342 28.6669 33.3334H34V40.6664H31.6668C31.1333 40.6477 30.6856 41.065 30.6668 41.5986C30.666 41.6212 30.666 41.6438 30.6668 41.6664V47.6662C30.6481 48.1997 31.0654 48.6474 31.5989 48.6661C31.6215 48.6669 31.6442 48.6669 31.6668 48.6661H38.3332C38.8667 48.6849 39.3144 48.2676 39.3331 47.734C39.3339 47.7114 39.3339 47.6888 39.3331 47.6662V41.6664C39.3519 41.1329 38.9346 40.6852 38.401 40.6664C38.3784 40.6657 38.3558 40.6657 38.3332 40.6664H35.9999V33.3334H40.6664C41.1999 33.3521 41.6476 32.9348 41.6664 32.4013C41.6672 32.3787 41.6672 32.356 41.6664 32.3334V30.0002H45.6662V40.6664H43.333C42.7995 40.6477 42.3518 41.065 42.333 41.5986C42.3322 41.6212 42.3322 41.6438 42.333 41.6664V47.6662C42.3143 48.1997 42.7316 48.6474 43.2651 48.6661C43.2877 48.6669 43.3104 48.6669 43.333 48.6661H49.9994C50.5329 48.6849 50.9806 48.2676 50.9993 47.734C51.0001 47.7114 51.0001 47.6888 50.9993 47.6662V41.6664C51.018 41.1329 50.6007 40.6852 50.0672 40.6664Z" fill="#F75D5D"/>
</g>
<defs>
<clipPath id="clip0">
<rect width="32" height="32" fill="white" transform="translate(19 19)"/>
</clipPath>
</defs>
</svg>
