<svg width="70" height="70" viewBox="0 0 70 70" fill="none" xmlns="http://www.w3.org/2000/svg">
<rect width="70" height="70" rx="7" fill="#FCD9D9"/>
<path d="M37.5963 20.1719C37.2251 19.9948 36.7877 20.0417 36.4677 20.2999L26.0912 28.6007H21.1333C19.9579 28.6007 19 29.5585 19 30.734V39.2673C19 40.4449 19.9579 41.4007 21.1333 41.4007H26.0912L36.4656 49.7015C36.6597 49.8551 36.8965 49.934 37.1333 49.934C37.2912 49.934 37.4491 49.8977 37.5963 49.8273C37.9653 49.6503 38.2 49.2769 38.2 48.8673V21.134C38.2 20.7244 37.9653 20.3511 37.5963 20.1719Z" fill="#FF5454"/>
<path d="M43.5997 27.4571C43.1794 27.0432 42.5053 27.0496 42.0914 27.4656C41.6776 27.8859 41.6818 28.56 42.1 28.976C43.7128 30.5675 44.6002 32.7072 44.6002 35.0006C44.6002 37.2939 43.7128 39.4336 42.1 41.0251C41.6818 41.4368 41.6776 42.1131 42.0914 42.5334C42.3005 42.7446 42.5757 42.8491 42.8488 42.8491C43.1197 42.8491 43.3906 42.7467 43.5997 42.5398C45.6221 40.5494 46.7336 37.8699 46.7336 35.0006C46.7336 32.1312 45.6221 29.4518 43.5997 27.4571Z" fill="#FF5454"/>
<path d="M46.6094 24.4513C46.1892 24.0353 45.515 24.0396 45.099 24.4577C44.6852 24.8759 44.6894 25.5521 45.1054 25.966C47.531 28.3703 48.8665 31.5788 48.8665 35.0007C48.8665 38.4225 47.531 41.6289 45.1054 44.0332C44.6894 44.4492 44.6852 45.1255 45.099 45.5436C45.3102 45.7527 45.5833 45.8572 45.8564 45.8572C46.1273 45.8572 46.4004 45.7548 46.6094 45.5479C49.4425 42.7425 50.9998 38.9964 50.9998 35.0007C50.9998 31.0049 49.4425 27.2588 46.6094 24.4513Z" fill="#FF5454"/>
</svg>
