<svg width="1490" height="643" viewBox="0 0 1490 643" fill="none" xmlns="http://www.w3.org/2000/svg">
<circle cx="1289" cy="508" r="3" transform="rotate(-90 1289 508)" fill="#FF5454"/>
<circle opacity="0.7" cx="1289" cy="486" r="3" transform="rotate(-90 1289 486)" fill="#FF5454"/>
<circle opacity="0.5" cx="1289" cy="464" r="3" transform="rotate(-90 1289 464)" fill="#FF5454"/>
<circle cx="1311" cy="508" r="3" transform="rotate(-90 1311 508)" fill="#FF5454"/>
<circle opacity="0.7" cx="1311" cy="486" r="3" transform="rotate(-90 1311 486)" fill="#FF5454"/>
<circle opacity="0.5" cx="1311" cy="464" r="3" transform="rotate(-90 1311 464)" fill="#FF5454"/>
<circle cx="1333" cy="508" r="3" transform="rotate(-90 1333 508)" fill="#FF5454"/>
<circle opacity="0.7" cx="1333" cy="486" r="3" transform="rotate(-90 1333 486)" fill="#FF5454"/>
<circle opacity="0.5" cx="1333" cy="464" r="3" transform="rotate(-90 1333 464)" fill="#FF5454"/>
<circle cx="1355" cy="508" r="3" transform="rotate(-90 1355 508)" fill="#FF5454"/>
<circle opacity="0.7" cx="1355" cy="486" r="3" transform="rotate(-90 1355 486)" fill="#FF5454"/>
<circle opacity="0.5" cx="1355" cy="464" r="3" transform="rotate(-90 1355 464)" fill="#FF5454"/>
<circle opacity="0.3" cx="1289" cy="442" r="3" transform="rotate(-90 1289 442)" fill="#FF5454"/>
<circle opacity="0.1" cx="1289" cy="420" r="3" transform="rotate(-90 1289 420)" fill="#FF5454"/>
<circle opacity="0.3" cx="1311" cy="442" r="3" transform="rotate(-90 1311 442)" fill="#FF5454"/>
<circle opacity="0.1" cx="1311" cy="420" r="3" transform="rotate(-90 1311 420)" fill="#FF5454"/>
<circle opacity="0.3" cx="1333" cy="442" r="3" transform="rotate(-90 1333 442)" fill="#FF5454"/>
<circle opacity="0.1" cx="1333" cy="420" r="3" transform="rotate(-90 1333 420)" fill="#FF5454"/>
<circle opacity="0.3" cx="1355" cy="442" r="3" transform="rotate(-90 1355 442)" fill="#FF5454"/>
<circle opacity="0.1" cx="1355" cy="420" r="3" transform="rotate(-90 1355 420)" fill="#FF5454"/>
<circle cx="1377" cy="508" r="3" transform="rotate(-90 1377 508)" fill="#FF5454"/>
<circle opacity="0.7" cx="1377" cy="486" r="3" transform="rotate(-90 1377 486)" fill="#FF5454"/>
<circle opacity="0.5" cx="1377" cy="464" r="3" transform="rotate(-90 1377 464)" fill="#FF5454"/>
<circle cx="1399" cy="508" r="3" transform="rotate(-90 1399 508)" fill="#FF5454"/>
<circle opacity="0.7" cx="1399" cy="486" r="3" transform="rotate(-90 1399 486)" fill="#FF5454"/>
<circle opacity="0.5" cx="1399" cy="464" r="3" transform="rotate(-90 1399 464)" fill="#FF5454"/>
<circle cx="1421" cy="508" r="3" transform="rotate(-90 1421 508)" fill="#FF5454"/>
<circle opacity="0.7" cx="1421" cy="486" r="3" transform="rotate(-90 1421 486)" fill="#FF5454"/>
<circle opacity="0.5" cx="1421" cy="464" r="3" transform="rotate(-90 1421 464)" fill="#FF5454"/>
<circle cx="1443" cy="508" r="3" transform="rotate(-90 1443 508)" fill="#FF5454"/>
<circle opacity="0.7" cx="1443" cy="486" r="3" transform="rotate(-90 1443 486)" fill="#FF5454"/>
<circle opacity="0.5" cx="1443" cy="464" r="3" transform="rotate(-90 1443 464)" fill="#FF5454"/>
<circle opacity="0.3" cx="1377" cy="442" r="3" transform="rotate(-90 1377 442)" fill="#FF5454"/>
<circle opacity="0.1" cx="1377" cy="420" r="3" transform="rotate(-90 1377 420)" fill="#FF5454"/>
<circle opacity="0.3" cx="1399" cy="442" r="3" transform="rotate(-90 1399 442)" fill="#FF5454"/>
<circle opacity="0.1" cx="1399" cy="420" r="3" transform="rotate(-90 1399 420)" fill="#FF5454"/>
<circle opacity="0.3" cx="1421" cy="442" r="3" transform="rotate(-90 1421 442)" fill="#FF5454"/>
<circle opacity="0.1" cx="1421" cy="420" r="3" transform="rotate(-90 1421 420)" fill="#FF5454"/>
<circle opacity="0.3" cx="1443" cy="442" r="3" transform="rotate(-90 1443 442)" fill="#FF5454"/>
<circle opacity="0.1" cx="1443" cy="420" r="3" transform="rotate(-90 1443 420)" fill="#FF5454"/>
<circle cx="1465" cy="508" r="3" transform="rotate(-90 1465 508)" fill="#FF5454"/>
<circle opacity="0.7" cx="1465" cy="486" r="3" transform="rotate(-90 1465 486)" fill="#FF5454"/>
<circle opacity="0.5" cx="1465" cy="464" r="3" transform="rotate(-90 1465 464)" fill="#FF5454"/>
<circle cx="1487" cy="508" r="3" transform="rotate(-90 1487 508)" fill="#FF5454"/>
<circle opacity="0.7" cx="1487" cy="486" r="3" transform="rotate(-90 1487 486)" fill="#FF5454"/>
<circle opacity="0.5" cx="1487" cy="464" r="3" transform="rotate(-90 1487 464)" fill="#FF5454"/>
<circle opacity="0.3" cx="1465" cy="442" r="3" transform="rotate(-90 1465 442)" fill="#FF5454"/>
<circle opacity="0.1" cx="1465" cy="420" r="3" transform="rotate(-90 1465 420)" fill="#FF5454"/>
<circle opacity="0.3" cx="1487" cy="442" r="3" transform="rotate(-90 1487 442)" fill="#FF5454"/>
<circle opacity="0.1" cx="1487" cy="420" r="3" transform="rotate(-90 1487 420)" fill="#FF5454"/>
<rect x="342" y="131" width="922" height="512" rx="7" fill="#E9E5E9"/>
<rect x="1178.5" y="0.5" width="258" height="350" rx="6.5" fill="#E9E5E9" stroke="black"/>
<rect x="0.5" y="55.5" width="226" height="181" rx="6.5" fill="#E9E5E9" stroke="black"/>
<rect x="139.5" y="317.5" width="157" height="67" rx="6.5" fill="#E9E5E9" stroke="black"/>
</svg>
