<svg width="94" height="424" viewBox="0 0 94 424" fill="none" xmlns="http://www.w3.org/2000/svg">
<circle cx="3" cy="3" r="3" fill="#FF5454"/>
<circle opacity="0.7" cx="25" cy="3" r="3" fill="#FF5454"/>
<circle opacity="0.5" cx="47" cy="3" r="3" fill="#FF5454"/>
<circle cx="3" cy="25" r="3" fill="#FF5454"/>
<circle opacity="0.7" cx="25" cy="25" r="3" fill="#FF5454"/>
<circle opacity="0.5" cx="47" cy="25" r="3" fill="#FF5454"/>
<circle cx="3" cy="47" r="3" fill="#FF5454"/>
<circle opacity="0.7" cx="25" cy="47" r="3" fill="#FF5454"/>
<circle opacity="0.5" cx="47" cy="47" r="3" fill="#FF5454"/>
<circle cx="3" cy="69" r="3" fill="#FF5454"/>
<circle opacity="0.7" cx="25" cy="69" r="3" fill="#FF5454"/>
<circle opacity="0.5" cx="47" cy="69" r="3" fill="#FF5454"/>
<circle opacity="0.3" cx="69" cy="3" r="3" fill="#FF5454"/>
<circle opacity="0.1" cx="91" cy="3" r="3" fill="#FF5454"/>
<circle opacity="0.3" cx="69" cy="25" r="3" fill="#FF5454"/>
<circle opacity="0.1" cx="91" cy="25" r="3" fill="#FF5454"/>
<circle opacity="0.3" cx="69" cy="47" r="3" fill="#FF5454"/>
<circle opacity="0.1" cx="91" cy="47" r="3" fill="#FF5454"/>
<circle opacity="0.3" cx="69" cy="69" r="3" fill="#FF5454"/>
<circle opacity="0.1" cx="91" cy="69" r="3" fill="#FF5454"/>
<circle cx="3" cy="91" r="3" fill="#FF5454"/>
<circle opacity="0.7" cx="25" cy="91" r="3" fill="#FF5454"/>
<circle opacity="0.5" cx="47" cy="91" r="3" fill="#FF5454"/>
<circle cx="3" cy="113" r="3" fill="#FF5454"/>
<circle opacity="0.7" cx="25" cy="113" r="3" fill="#FF5454"/>
<circle opacity="0.5" cx="47" cy="113" r="3" fill="#FF5454"/>
<circle cx="3" cy="135" r="3" fill="#FF5454"/>
<circle opacity="0.7" cx="25" cy="135" r="3" fill="#FF5454"/>
<circle opacity="0.5" cx="47" cy="135" r="3" fill="#FF5454"/>
<circle cx="3" cy="157" r="3" fill="#FF5454"/>
<circle opacity="0.7" cx="25" cy="157" r="3" fill="#FF5454"/>
<circle opacity="0.5" cx="47" cy="157" r="3" fill="#FF5454"/>
<circle opacity="0.3" cx="69" cy="91" r="3" fill="#FF5454"/>
<circle opacity="0.1" cx="91" cy="91" r="3" fill="#FF5454"/>
<circle opacity="0.3" cx="69" cy="113" r="3" fill="#FF5454"/>
<circle opacity="0.1" cx="91" cy="113" r="3" fill="#FF5454"/>
<circle opacity="0.3" cx="69" cy="135" r="3" fill="#FF5454"/>
<circle opacity="0.1" cx="91" cy="135" r="3" fill="#FF5454"/>
<circle opacity="0.3" cx="69" cy="157" r="3" fill="#FF5454"/>
<circle opacity="0.1" cx="91" cy="157" r="3" fill="#FF5454"/>
<circle cx="3" cy="179" r="3" fill="#FF5454"/>
<circle opacity="0.7" cx="25" cy="179" r="3" fill="#FF5454"/>
<circle opacity="0.5" cx="47" cy="179" r="3" fill="#FF5454"/>
<circle cx="3" cy="201" r="3" fill="#FF5454"/>
<circle opacity="0.7" cx="25" cy="201" r="3" fill="#FF5454"/>
<circle opacity="0.5" cx="47" cy="201" r="3" fill="#FF5454"/>
<circle opacity="0.3" cx="69" cy="179" r="3" fill="#FF5454"/>
<circle opacity="0.1" cx="91" cy="179" r="3" fill="#FF5454"/>
<circle opacity="0.3" cx="69" cy="201" r="3" fill="#FF5454"/>
<circle opacity="0.1" cx="91" cy="201" r="3" fill="#FF5454"/>
<circle cx="3" cy="223" r="3" fill="#FF5454"/>
<circle opacity="0.7" cx="25" cy="223" r="3" fill="#FF5454"/>
<circle opacity="0.5" cx="47" cy="223" r="3" fill="#FF5454"/>
<circle cx="3" cy="245" r="3" fill="#FF5454"/>
<circle opacity="0.7" cx="25" cy="245" r="3" fill="#FF5454"/>
<circle opacity="0.5" cx="47" cy="245" r="3" fill="#FF5454"/>
<circle cx="3" cy="267" r="3" fill="#FF5454"/>
<circle opacity="0.7" cx="25" cy="267" r="3" fill="#FF5454"/>
<circle opacity="0.5" cx="47" cy="267" r="3" fill="#FF5454"/>
<circle cx="3" cy="289" r="3" fill="#FF5454"/>
<circle opacity="0.7" cx="25" cy="289" r="3" fill="#FF5454"/>
<circle opacity="0.5" cx="47" cy="289" r="3" fill="#FF5454"/>
<circle opacity="0.3" cx="69" cy="223" r="3" fill="#FF5454"/>
<circle opacity="0.1" cx="91" cy="223" r="3" fill="#FF5454"/>
<circle opacity="0.3" cx="69" cy="245" r="3" fill="#FF5454"/>
<circle opacity="0.1" cx="91" cy="245" r="3" fill="#FF5454"/>
<circle opacity="0.3" cx="69" cy="267" r="3" fill="#FF5454"/>
<circle opacity="0.1" cx="91" cy="267" r="3" fill="#FF5454"/>
<circle opacity="0.3" cx="69" cy="289" r="3" fill="#FF5454"/>
<circle opacity="0.1" cx="91" cy="289" r="3" fill="#FF5454"/>
<circle cx="3" cy="311" r="3" fill="#FF5454"/>
<circle opacity="0.7" cx="25" cy="311" r="3" fill="#FF5454"/>
<circle opacity="0.5" cx="47" cy="311" r="3" fill="#FF5454"/>
<circle cx="3" cy="333" r="3" fill="#FF5454"/>
<circle opacity="0.7" cx="25" cy="333" r="3" fill="#FF5454"/>
<circle opacity="0.5" cx="47" cy="333" r="3" fill="#FF5454"/>
<circle cx="3" cy="355" r="3" fill="#FF5454"/>
<circle opacity="0.7" cx="25" cy="355" r="3" fill="#FF5454"/>
<circle opacity="0.5" cx="47" cy="355" r="3" fill="#FF5454"/>
<circle cx="3" cy="377" r="3" fill="#FF5454"/>
<circle opacity="0.7" cx="25" cy="377" r="3" fill="#FF5454"/>
<circle opacity="0.5" cx="47" cy="377" r="3" fill="#FF5454"/>
<circle opacity="0.3" cx="69" cy="311" r="3" fill="#FF5454"/>
<circle opacity="0.1" cx="91" cy="311" r="3" fill="#FF5454"/>
<circle opacity="0.3" cx="69" cy="333" r="3" fill="#FF5454"/>
<circle opacity="0.1" cx="91" cy="333" r="3" fill="#FF5454"/>
<circle opacity="0.3" cx="69" cy="355" r="3" fill="#FF5454"/>
<circle opacity="0.1" cx="91" cy="355" r="3" fill="#FF5454"/>
<circle opacity="0.3" cx="69" cy="377" r="3" fill="#FF5454"/>
<circle opacity="0.1" cx="91" cy="377" r="3" fill="#FF5454"/>
<circle cx="3" cy="399" r="3" fill="#FF5454"/>
<circle opacity="0.7" cx="25" cy="399" r="3" fill="#FF5454"/>
<circle opacity="0.5" cx="47" cy="399" r="3" fill="#FF5454"/>
<circle cx="3" cy="421" r="3" fill="#FF5454"/>
<circle opacity="0.7" cx="25" cy="421" r="3" fill="#FF5454"/>
<circle opacity="0.5" cx="47" cy="421" r="3" fill="#FF5454"/>
<circle opacity="0.3" cx="69" cy="399" r="3" fill="#FF5454"/>
<circle opacity="0.1" cx="91" cy="399" r="3" fill="#FF5454"/>
<circle opacity="0.3" cx="69" cy="421" r="3" fill="#FF5454"/>
<circle opacity="0.1" cx="91" cy="421" r="3" fill="#FF5454"/>
</svg>
