<svg width="305" height="427" viewBox="0 0 305 427" fill="none" xmlns="http://www.w3.org/2000/svg">
<g clip-path="url(#clip0)">
<path d="M303.544 99.4477C301.216 73.2185 292.087 47.0023 274.322 27.5973C256.558 8.19238 229.443 -3.45059 203.512 0.912262C177.581 5.27512 154.654 27.4801 152.898 53.7614C151.975 67.7226 156.617 81.5535 155.85 95.5016C154.55 119.621 137.266 140.016 117.929 154.459C101.27 166.896 83.3232 171.389 71.3849 188.385C49.9663 218.899 53.5295 254.075 66.1831 275.108C70.5396 282.336 77.6662 289.134 86.2102 294.943C110.75 311.6 141.454 315.897 170.181 308.565C214.787 297.17 255.05 269 278.25 232.443C305.195 189.974 307.367 142.529 303.544 99.4477Z" fill="#E8505B"/>
<g opacity="0.8">
<path opacity="0.8" d="M303.544 99.4477C301.216 73.2185 292.087 47.0023 274.322 27.5973C256.558 8.19238 229.443 -3.45059 203.512 0.912262C177.581 5.27512 154.654 27.4801 152.898 53.7614C151.975 67.7226 156.617 81.5535 155.85 95.5016C154.55 119.621 137.266 140.016 117.929 154.459C101.27 166.896 83.3232 171.389 71.3849 188.385C49.9663 218.899 53.5295 254.075 66.1831 275.108C70.5396 282.336 77.6662 289.134 86.2102 294.943C110.75 311.6 141.454 315.897 170.181 308.565C214.787 297.17 255.05 269 278.25 232.443C305.195 189.974 307.367 142.529 303.544 99.4477Z" fill="white"/>
</g>
<path d="M115.9 286.438C116.92 286.438 117.747 285.61 117.747 284.589C117.747 283.567 116.92 282.739 115.9 282.739C114.88 282.739 114.053 283.567 114.053 284.589C114.053 285.61 114.88 286.438 115.9 286.438Z" fill="#E8505B"/>
<path d="M145.29 317.343C145.829 317.343 146.266 316.905 146.266 316.366C146.266 315.826 145.829 315.389 145.29 315.389C144.752 315.389 144.315 315.826 144.315 316.366C144.315 316.905 144.752 317.343 145.29 317.343Z" fill="#E8505B"/>
<path d="M209.598 322.07C202.953 324.805 195.293 334.351 194.799 341.866C194.305 349.38 198.219 356.843 204.253 361.336C210.489 365.69 218.116 367.574 225.659 366.623C231.004 366.05 236.414 364.136 240.042 360.112C244.047 355.723 245.309 349.367 244.724 343.455C244.363 339.381 243.114 335.436 241.064 331.899C239.015 328.361 236.216 325.317 232.863 322.982C226.023 318.502 216.634 317.864 209.624 322.07" fill="#E8505B"/>
<g opacity="0.8">
<path opacity="0.8" d="M209.598 322.07C202.953 324.805 195.293 334.351 194.799 341.866C194.305 349.38 198.219 356.843 204.253 361.336C210.489 365.69 218.116 367.574 225.659 366.623C231.004 366.05 236.414 364.136 240.042 360.112C244.047 355.723 245.309 349.367 244.724 343.455C244.363 339.381 243.114 335.436 241.064 331.899C239.015 328.361 236.216 325.317 232.863 322.982C226.023 318.502 216.634 317.864 209.624 322.07" fill="white"/>
</g>
<path fill-rule="evenodd" clip-rule="evenodd" d="M261.382 177.77C261.382 178.43 261.187 179.074 260.821 179.623C260.456 180.171 259.936 180.598 259.327 180.851C258.719 181.103 258.05 181.169 257.404 181.04C256.758 180.912 256.165 180.594 255.699 180.128C255.234 179.662 254.917 179.067 254.788 178.421C254.66 177.774 254.726 177.104 254.978 176.494C255.23 175.885 255.656 175.365 256.204 174.998C256.751 174.632 257.395 174.436 258.053 174.436C258.936 174.436 259.783 174.788 260.407 175.413C261.032 176.038 261.382 176.886 261.382 177.77Z" fill="#E8505B"/>
<path d="M207.934 54.3339C208.953 54.3339 209.78 53.5059 209.78 52.4846C209.78 51.4632 208.953 50.6353 207.934 50.6353C206.914 50.6353 206.087 51.4632 206.087 52.4846C206.087 53.5059 206.914 54.3339 207.934 54.3339Z" fill="#E8505B"/>
<path d="M252.683 391.811C252.683 393.986 220.509 395.718 180.832 395.718C141.155 395.718 108.981 393.947 108.981 391.811C108.981 389.675 141.142 387.904 180.832 387.904C220.522 387.904 252.683 389.636 252.683 391.811Z" fill="#FAFAFA"/>
<path d="M71.8792 426.049L88.291 392.188H269.277L290.851 426.049C290.851 426.049 71.8271 428.329 71.8271 426.141" fill="#263238"/>
<path d="M184.317 426.596C184.174 426.596 184.044 420.019 184.044 411.906C184.044 403.792 184.174 397.202 184.317 397.202C184.46 397.202 184.59 403.779 184.59 411.906C184.59 420.033 184.473 426.596 184.317 426.596Z" fill="#455A64"/>
<path d="M276.325 405.485C276.099 405.539 275.868 405.574 275.636 405.59L273.633 405.824L266.13 406.592L240.354 409.054L240.562 408.924L235.166 417.636L235.088 417.766H234.944H232.825L198.531 418.392L188.128 418.522H184.577H184.317H184.577H185.306L188.128 418.418L198.531 418.118L232.864 417.272H234.984L234.749 417.402L240.159 408.702L240.237 408.585H240.367L266.143 406.319L273.659 405.707L275.675 405.563C275.889 405.52 276.107 405.494 276.325 405.485Z" fill="#455A64"/>
<path d="M259.965 406.983C259.357 404.962 258.922 402.892 258.665 400.797C258.256 398.728 258.021 396.628 257.962 394.52C258.577 396.544 259.012 398.618 259.263 400.719C259.671 402.784 259.906 404.879 259.965 406.983Z" fill="#455A64"/>
<path d="M114.846 427C114.721 426.835 114.624 426.65 114.56 426.453L113.871 424.89C113.286 423.471 112.57 421.543 111.569 419.251L111.764 419.381L99.3446 418.444C93.0374 417.949 87.3283 417.48 83.1929 417.141L78.3031 416.686C77.7055 416.646 77.1107 416.572 76.5215 416.464C77.1248 416.454 77.7282 416.475 78.3291 416.529L83.2319 416.842C87.3674 417.115 93.0894 417.545 99.3967 418.04L111.803 419.03H111.92V419.147C112.791 421.452 113.507 423.393 114.053 424.838C114.274 425.476 114.456 425.997 114.612 426.427C114.71 426.61 114.788 426.802 114.846 427Z" fill="#455A64"/>
<path d="M184.317 405.485H184.109H183.485H181.053L172.041 405.564L141.532 405.655H141.623L133.339 408.78L128.826 410.538H128.748L95.7163 406.436L85.8588 405.134L83.1929 404.756L82.5036 404.652H82.2695H82.5166H83.2059L85.9108 405.03L95.7814 406.137L128.839 410.044H128.722L133.209 408.351L141.493 405.238H141.597L172.106 405.329L181.118 405.407H183.55H184.174C184.252 405.459 184.317 405.472 184.317 405.485Z" fill="#455A64"/>
</g>
<g clip-path="url(#clip1)">
<path d="M181.192 119.254C181.192 119.254 114.79 117.119 114.79 152.436C114.79 192.442 127.984 267.404 181.192 266.625C234.4 265.846 244.158 160.746 244.706 156.057C244.75 156.014 247.536 122.371 181.192 119.254Z" fill="#FF5454"/>
<path d="M243.162 146.896C243.081 146.981 242.989 147.054 242.887 147.113L242.05 147.675C241.314 148.18 240.188 148.858 238.716 149.695C234.536 152.013 230.154 153.944 225.623 155.466C218.899 157.748 211.965 159.357 204.923 160.27C196.307 161.361 187.624 161.844 178.94 161.713C170.261 161.746 161.587 161.308 152.956 160.4C145.872 159.662 138.939 157.867 132.386 155.076C127.988 153.15 123.917 150.551 120.319 147.372C119.351 146.498 118.431 145.574 117.561 144.602L116.912 143.823C116.768 143.65 116.695 143.549 116.71 143.549C116.724 143.549 116.811 143.549 116.97 143.78L117.677 144.501C118.298 145.136 119.236 146.045 120.564 147.156C124.212 150.216 128.293 152.72 132.675 154.586C139.189 157.3 146.066 159.045 153.086 159.765C161.72 160.634 170.393 161.053 179.07 161.02C187.72 161.122 196.367 160.64 204.952 159.577C211.961 158.701 218.869 157.15 225.58 154.946C230.101 153.459 234.49 151.596 238.701 149.378C240.145 148.584 241.328 147.935 242.094 147.488L242.974 146.983C243.035 146.95 243.097 146.921 243.162 146.896Z" fill="#263238"/>
<path d="M203.032 160.227C203.1 160.549 203.134 160.878 203.133 161.208C203.133 161.857 203.133 162.823 203.133 164.093C203.149 167.595 202.781 171.088 202.036 174.509C201.516 176.879 200.756 179.189 199.77 181.405C198.682 183.975 197.223 186.371 195.439 188.518C193.445 190.893 191.046 192.896 188.351 194.433C186.919 195.23 185.41 195.882 183.848 196.38C182.219 196.864 180.536 197.145 178.839 197.217C175.477 197.319 172.15 196.512 169.21 194.88C166.497 193.364 164.105 191.335 162.166 188.907C158.933 184.771 156.82 179.872 156.031 174.682C155.457 171.222 155.239 167.713 155.381 164.208C155.381 162.968 155.483 162.015 155.54 161.323C155.548 160.987 155.591 160.654 155.67 160.328C155.734 160.656 155.768 160.989 155.771 161.323C155.771 162.044 155.771 162.997 155.771 164.208C155.749 167.681 156.049 171.149 156.666 174.567C157.521 179.635 159.636 184.407 162.816 188.446C164.712 190.794 167.045 192.754 169.687 194.216C172.51 195.776 175.701 196.548 178.925 196.452C180.559 196.382 182.179 196.111 183.747 195.645C185.248 195.164 186.699 194.535 188.077 193.769C190.706 192.264 193.051 190.311 195.006 187.998C196.774 185.909 198.232 183.577 199.336 181.073C200.326 178.899 201.1 176.633 201.646 174.307C202.426 170.926 202.871 167.475 202.974 164.006C202.974 162.838 202.974 161.9 203.046 161.121C203.022 160.824 203.017 160.525 203.032 160.227Z" fill="#263238"/>
<path d="M218.838 241.724C218.752 241.724 218.319 240.281 217.178 237.829C215.567 234.36 213.504 231.12 211.044 228.192C207.387 223.852 202.896 220.29 197.835 217.718C191.614 214.617 184.714 213.124 177.767 213.376C170.82 213.629 164.046 215.617 158.067 219.16C153.209 222.13 148.993 226.039 145.667 230.659C143.439 233.776 141.629 237.171 140.282 240.757C139.344 243.297 139.027 244.783 138.94 244.754C138.971 244.392 139.039 244.034 139.142 243.686C139.286 242.979 139.59 241.955 140.008 240.656C141.257 236.999 143.016 233.536 145.234 230.37C148.543 225.653 152.782 221.661 157.691 218.641C163.75 214.994 170.635 212.941 177.703 212.674C184.771 212.407 191.792 213.933 198.11 217.112C203.229 219.757 207.757 223.413 211.419 227.86C213.885 230.87 215.916 234.211 217.453 237.786C217.865 238.727 218.227 239.69 218.535 240.671C218.659 241.015 218.76 241.367 218.838 241.724Z" fill="#263238"/>
<path d="M208.517 206.623L211.563 192.918L238.398 192.918C237.445 196.972 236.103 201.718 234.587 206.768L208.517 206.623Z" fill="#FAFAFA"/>
<path d="M148.554 206.623L145.493 192.918L118.644 192.918C119.597 196.972 120.391 201.718 121.921 206.768L148.554 206.623Z" fill="#FAFAFA"/>
<path opacity="0.4" d="M241.256 143.549C234.847 133.075 217.842 120.928 181.192 119.254C181.192 119.254 140.124 117.927 122.599 134.532C120.936 136.237 119.433 138.092 118.11 140.072C117.042 142.063 131.823 159.779 179.272 158.264C228.236 156.692 241.256 143.549 241.256 143.549Z" fill="black"/>
<path d="M113.664 80.9655C111.311 75.6997 110.171 69.6692 111.773 64.1293C113.375 58.5894 118.139 53.7564 123.884 53.2515" fill="#263238"/>
<path d="M121.979 53.5833C121.979 53.6842 121.011 54.4633 119.626 56.0358C117.829 58.0635 116.323 60.331 115.151 62.7732C114.058 65.2655 113.122 67.8241 112.35 70.4338C112.109 71.5462 111.791 72.6404 111.398 73.7087C111.373 72.5577 111.524 71.4096 111.845 70.304C112.47 67.6107 113.35 64.9828 114.472 62.4558C115.664 59.9383 117.28 57.6446 119.25 55.6751C120.003 54.7942 120.932 54.0815 121.979 53.5833Z" fill="#FF5454"/>
<path d="M246.381 80.9655C248.734 75.6997 249.874 69.6692 248.272 64.1293C246.669 58.5894 241.906 53.7564 236.161 53.2515" fill="#263238"/>
<path d="M238.052 53.5833C239.098 54.0815 240.028 54.7942 240.78 55.6751C242.75 57.6446 244.366 59.9383 245.558 62.4558C246.671 64.9838 247.541 67.6116 248.156 70.304C248.478 71.4096 248.629 72.5577 248.604 73.7087C248.226 72.6393 247.922 71.5451 247.694 70.4338C246.923 67.8241 245.987 65.2655 244.894 62.7732C243.724 60.3209 242.218 58.0436 240.419 56.007C239.033 54.4633 238.052 53.6842 238.052 53.5833Z" fill="#FF5454"/>
<path d="M118.976 107.107C115.776 103.844 113.428 99.8463 112.137 95.4642C110.845 91.082 110.651 86.4499 111.571 81.9752C115.353 62.672 129.47 27.8744 181.191 28.5958C235.468 29.3748 245.644 66.9135 247.405 85.0048C247.769 88.704 247.398 92.4387 246.313 95.994C245.228 99.5494 243.451 102.855 241.083 105.722C232.999 115.46 215.865 128.026 181.191 128.011C146.85 127.997 128.344 116.6 118.976 107.107Z" fill="#FF5454"/>
<path d="M157.027 30.9043C157.027 30.9043 157.157 31.1063 157.33 31.5391L158.067 33.4434C158.716 35.0881 159.626 37.4829 161.04 40.2962C162.648 43.6067 164.85 46.5944 167.536 49.111C170.774 52.2373 175.102 53.9811 179.604 53.9729C184.097 53.7126 188.374 51.961 191.758 48.9956C194.527 46.5706 196.844 43.674 198.601 40.4405C199.816 38.2639 200.905 36.0192 201.863 33.7175C202.185 32.8577 202.551 32.015 202.96 31.1928C202.943 31.4367 202.885 31.6759 202.787 31.8998C202.657 32.3326 202.44 32.9962 202.123 33.8185C201.275 36.183 200.257 38.4829 199.077 40.7001C197.338 44.029 195.01 47.0155 192.206 49.515C188.719 52.6217 184.282 54.4573 179.618 54.7231C177.2 54.7824 174.801 54.289 172.603 53.2804C170.564 52.3686 168.691 51.1255 167.06 49.6015C164.338 47.0101 162.134 43.9258 160.564 40.5126C159.497 38.2492 158.572 35.922 157.792 33.5444C157.518 32.7077 157.316 32.1017 157.186 31.5968C157.098 31.3755 157.044 31.1419 157.027 30.9043Z" fill="#263238"/>
<path d="M215.489 104.928C190.315 111.074 165.731 111.305 141.798 105.188C137.427 104.052 133.558 101.494 130.801 97.9184C128.044 94.3427 126.555 89.952 126.569 85.4378L126.569 85.0915C126.569 79.6736 128.722 74.4775 132.556 70.6464C136.389 66.8154 141.588 64.6631 147.009 64.6631L210.625 64.6631C216.038 64.6746 221.226 66.8319 225.05 70.6617C228.874 74.4916 231.022 79.6811 231.022 85.0915C231.026 89.6578 229.498 94.0936 226.682 97.6897C223.866 101.286 219.925 103.834 215.489 104.928Z" fill="#263238"/>
<path d="M160.001 89.0157C159.855 89.9198 159.444 90.7605 158.821 91.4314C158.197 92.1023 157.388 92.5733 156.496 92.7848C155.605 92.9963 154.67 92.9389 153.812 92.6197C152.953 92.3006 152.208 91.7341 151.671 90.9919C151.134 90.2496 150.829 89.365 150.796 88.4498C150.762 87.5346 151 86.6299 151.481 85.8501C151.962 85.0704 152.663 84.4505 153.496 84.069C154.329 83.6874 155.256 83.5613 156.161 83.7066C156.762 83.8031 157.338 84.0169 157.856 84.336C158.375 84.6551 158.825 85.073 159.182 85.5661C159.538 86.0591 159.794 86.6175 159.935 87.2094C160.075 87.8013 160.098 88.4151 160.001 89.0157Z" fill="white"/>
<path d="M213.093 86.3033C212.947 87.2074 212.537 88.0481 211.913 88.719C211.289 89.3899 210.48 89.8609 209.589 90.0724C208.697 90.2839 207.763 90.2265 206.904 89.9073C206.045 89.5882 205.3 89.0217 204.763 88.2795C204.226 87.5372 203.922 86.6526 203.888 85.7374C203.854 84.8222 204.093 83.9175 204.573 83.1377C205.054 82.358 205.755 81.7381 206.588 81.3566C207.421 80.975 208.349 80.8489 209.253 80.9942C209.854 81.0907 210.43 81.3045 210.949 81.6236C211.467 81.9427 211.917 82.3606 212.274 82.8537C212.63 83.3467 212.886 83.9051 213.027 84.497C213.167 85.0889 213.19 85.7027 213.093 86.3033Z" fill="white"/>
<path d="M192.711 86.9238C192.927 88.3052 192.684 89.7194 192.018 90.9489C191.402 92.3231 190.473 93.5337 189.304 94.4835C187.867 95.6143 186.12 96.2833 184.295 96.4023C182.481 96.5477 180.666 96.1295 179.098 95.2049C177.822 94.427 176.753 93.3531 175.98 92.0742C175.181 90.9423 174.78 89.5775 174.84 88.1934C175.284 89.4157 175.849 90.5902 176.529 91.6991C177.314 92.8147 178.334 93.7453 179.517 94.4258C180.958 95.2143 182.599 95.5653 184.237 95.4357C185.889 95.3159 187.472 94.725 188.799 93.7333C189.888 92.8974 190.789 91.8403 191.44 90.6315C191.976 89.4371 192.402 88.196 192.711 86.9238Z" fill="white"/>
</g>
<path fill-rule="evenodd" clip-rule="evenodd" d="M52.226 103.155C53.1413 101.36 54.2911 99.6941 55.6455 98.2L53.743 92.9971L61.4774 88.042L65.4441 91.9194C67.352 91.3027 69.3344 90.9444 71.3381 90.854L73.6883 85.8369L82.6662 87.7694V93.3068C84.4748 94.2068 86.1489 95.3534 87.64 96.7135L92.8129 94.8801L97.7868 102.573L93.8947 106.525C94.5137 108.425 94.8733 110.4 94.9641 112.397L99.938 114.738L97.9982 123.694H92.4398C91.5298 125.492 90.3795 127.159 89.0203 128.649L90.9228 133.852L83.2009 138.807L79.2342 134.93C77.325 135.542 75.3432 135.9 73.3401 135.995L70.99 140.951L61.9997 139.006V133.481C60.1999 132.566 58.5278 131.42 57.0258 130.074L51.8654 132.044L46.8915 124.338L50.7835 120.387C50.1751 118.476 49.8238 116.493 49.739 114.49L44.7651 112.149L46.7174 103.205H52.2633L52.226 103.155ZM62.7955 110.984C62.3847 112.883 62.5483 114.861 63.2656 116.667C63.9828 118.473 65.2215 120.027 66.8251 121.133C68.4287 122.238 70.3251 122.844 72.2747 122.876C74.2243 122.907 76.1395 122.362 77.7783 121.31C79.4171 120.257 80.7058 118.744 81.4816 116.962C82.2574 115.18 82.4854 113.209 82.1368 111.297C81.7883 109.386 80.8787 107.621 79.5232 106.225C78.1677 104.828 76.4271 103.863 74.5214 103.452C73.255 103.179 71.947 103.158 70.6722 103.388C69.3973 103.619 68.1806 104.098 67.0916 104.797C66.0026 105.497 65.0626 106.403 64.3255 107.465C63.5883 108.526 63.0684 109.722 62.7955 110.984Z" fill="#E8505B"/>
<path fill-rule="evenodd" clip-rule="evenodd" d="M37.6401 62.3866C38.0844 61.5212 38.6404 60.7175 39.2939 59.9957L38.3738 57.5182L42.1042 55.1025L44.0316 56.9855C44.9608 56.6844 45.9275 56.5135 46.904 56.4776L48.048 54L52.4126 54.9415V57.6296C53.2777 58.0717 54.0805 58.6257 54.8 59.2772L57.287 58.3605L59.6993 62.0769L57.8838 64.0094C58.1968 64.9343 58.385 65.8966 58.4434 66.871L60.9303 67.9983L59.9853 72.3464H57.2994C56.8512 73.2087 56.2909 74.0084 55.6332 74.7249L56.5533 77.2025L52.8229 79.6057L50.8955 77.7228C49.9693 78.0207 49.0077 78.1957 48.0355 78.2431L46.8915 80.7206L42.5394 79.7915V77.1034C41.6655 76.6645 40.8577 76.1057 40.1395 75.4434L37.6526 76.3725L35.2402 72.6561L37.1303 70.736C36.8312 69.8133 36.6556 68.8553 36.608 67.8868L34.1211 66.7471L35.0661 62.4114H37.7645L37.6401 62.3866ZM42.7881 66.1649C42.5866 67.0861 42.6636 68.0461 43.0095 68.9237C43.3554 69.8013 43.9547 70.5571 44.7316 71.0955C45.5084 71.634 46.4281 71.931 47.3743 71.949C48.3205 71.9669 49.2509 71.7051 50.0478 71.1966C50.8447 70.6881 51.4725 69.9556 51.8518 69.0918C52.231 68.228 52.3448 67.2716 52.1787 66.3434C52.0126 65.4152 51.5741 64.5569 50.9185 63.8769C50.263 63.1969 49.4199 62.7257 48.4956 62.5229C47.8808 62.3879 47.2452 62.3751 46.6254 62.4852C46.0056 62.5953 45.4137 62.8261 44.8835 63.1644C44.3534 63.5027 43.8954 63.9418 43.5358 64.4567C43.1763 64.9716 42.9222 65.5521 42.7881 66.1649Z" fill="#E8505B"/>
<g opacity="0.8">
<path opacity="0.8" fill-rule="evenodd" clip-rule="evenodd" d="M52.226 103.155C53.1413 101.36 54.2911 99.6941 55.6455 98.2L53.743 92.9971L61.4774 88.042L65.4441 91.9194C67.352 91.3027 69.3344 90.9444 71.3381 90.854L73.6883 85.8369L82.6662 87.7694V93.3068C84.4748 94.2068 86.1489 95.3534 87.64 96.7135L92.8129 94.8801L97.7868 102.573L93.8947 106.525C94.5137 108.425 94.8733 110.4 94.9641 112.397L99.938 114.738L97.9982 123.694H92.4398C91.5298 125.492 90.3795 127.159 89.0203 128.649L90.9228 133.852L83.2009 138.807L79.2342 134.93C77.325 135.542 75.3432 135.9 73.3401 135.995L70.99 140.951L61.9997 139.006V133.481C60.1999 132.566 58.5278 131.42 57.0258 130.074L51.8654 132.044L46.8915 124.338L50.7835 120.387C50.1751 118.476 49.8238 116.493 49.739 114.49L44.7651 112.149L46.7174 103.205H52.2633L52.226 103.155ZM62.7955 110.984C62.3847 112.883 62.5483 114.861 63.2656 116.667C63.9828 118.473 65.2215 120.027 66.8251 121.133C68.4287 122.238 70.3251 122.844 72.2747 122.876C74.2243 122.907 76.1395 122.362 77.7783 121.31C79.4171 120.257 80.7058 118.744 81.4816 116.962C82.2574 115.18 82.4854 113.209 82.1368 111.297C81.7883 109.386 80.8787 107.621 79.5232 106.225C78.1677 104.828 76.4271 103.863 74.5214 103.452C73.255 103.179 71.947 103.158 70.6722 103.388C69.3973 103.619 68.1806 104.098 67.0916 104.797C66.0026 105.497 65.0626 106.403 64.3255 107.465C63.5883 108.526 63.0684 109.722 62.7955 110.984Z" fill="white"/>
</g>
<defs>
<clipPath id="clip0">
<rect width="249" height="427" fill="white" transform="translate(56)"/>
</clipPath>
<clipPath id="clip1">
<rect width="138" height="238" fill="white" transform="translate(111 29)"/>
</clipPath>
</defs>
</svg>
