<svg width="441" height="435" viewBox="0 0 441 435" fill="none" xmlns="http://www.w3.org/2000/svg">
<path d="M375.912 221.421C462.293 270.285 462.753 349.456 376.912 398.36C291.072 447.263 151.48 447.223 65.0886 398.36C-21.3023 349.496 -21.7626 270.325 64.088 221.421C149.939 172.518 289.511 172.568 375.912 221.421Z" fill="#F4F8FB"/>
<path d="M93.3656 7.12196C88.6929 9.82271 84.6505 15.2642 82.7093 20.8958C81.4764 21.0436 80.2893 21.4528 79.2273 22.0961C78.9771 22.2361 78.727 22.3962 78.4768 22.5662C74.2583 25.6614 71.3922 30.2601 70.4721 35.4098C70.2463 36.7339 70.2463 38.0867 70.4721 39.4109C70.4813 39.5365 70.4564 39.6623 70.4 39.7749C70.3437 39.8876 70.258 39.983 70.1519 40.051L65.3291 42.8318C64.2231 43.5536 63.3026 44.5255 62.642 45.669C61.9815 46.8124 61.5995 48.0952 61.5269 49.4136C61.5269 51.8343 63.2479 52.8146 65.3591 51.5942L112.507 24.3767C113.616 23.6601 114.538 22.6907 115.199 21.5483C115.86 20.4058 116.241 19.1229 116.309 17.8049C116.309 15.3842 114.588 14.404 112.487 15.6243L104.762 20.0755C104.522 20.2156 104.362 20.0755 104.452 19.7354C105.166 17.474 105.458 15.1005 105.313 12.7335C104.802 6.35175 100.07 3.73103 94.3062 6.60182C93.956 6.80188 93.6558 7.00193 93.3656 7.12196Z" fill="#E5ECF2"/>
<path d="M56.5137 1.12031C53.0489 3.35998 50.454 6.71642 49.1594 10.6329C48.3077 10.7302 47.4878 11.0137 46.758 11.4632C46.5788 11.5603 46.4051 11.6671 46.2377 11.7833C43.3166 13.9157 41.3338 17.095 40.7044 20.6557C40.5489 21.566 40.5489 22.4961 40.7044 23.4065C40.7127 23.4945 40.6966 23.5831 40.6577 23.6625C40.6189 23.7419 40.5589 23.8091 40.4843 23.8566L37.1523 25.7771C36.3894 26.2752 35.7545 26.9458 35.2991 27.7348C34.8436 28.5237 34.5804 29.4088 34.5308 30.3184C34.5308 31.9888 35.7215 32.659 37.1723 31.8188L69.7115 13.0036C70.4744 12.5055 71.1093 11.8349 71.5647 11.0459C72.0202 10.257 72.2834 9.37188 72.3331 8.46233C72.3331 6.79187 71.1424 6.12169 69.6915 6.96192L64.3584 10.0328C64.1983 10.1328 64.0882 10.0328 64.1482 9.8027C64.6371 8.25183 64.8372 6.62445 64.7386 5.00138C64.3884 0.630174 61.1264 -1.18033 57.1141 0.800221L56.5137 1.12031Z" fill="#E5ECF2"/>
<path d="M63.5881 260.272C61.0166 257.811 58.0649 255.12 57.8848 251.559C57.897 249.964 58.3973 248.41 59.3184 247.106C60.2395 245.803 61.5373 244.812 63.0378 244.267C64.5457 243.758 66.141 243.558 67.728 243.68C69.315 243.802 70.8611 244.243 72.2733 244.978C75.0909 246.461 77.6004 248.467 79.6676 250.889C85.896 257.808 90.4049 266.097 92.8283 275.084C95.2518 284.071 95.5216 293.503 93.6158 302.613C93.3557 303.814 92.9554 305.144 91.8748 305.714C90.1538 306.635 88.1926 305.024 87.0119 303.474C84.4478 300.077 82.5128 296.249 81.2986 292.171C80.298 288.73 80.7382 284.919 79.4375 281.668C76.2256 273.705 69.7117 266.123 63.5881 260.272Z" fill="#232D54"/>
<path d="M63.5881 260.272C61.0166 257.811 58.0649 255.12 57.8848 251.559C57.897 249.964 58.3973 248.41 59.3184 247.106C60.2395 245.803 61.5373 244.812 63.0378 244.267C64.5457 243.758 66.141 243.558 67.728 243.68C69.315 243.802 70.8611 244.243 72.2733 244.978C75.0909 246.461 77.6004 248.467 79.6676 250.889C85.896 257.808 90.4049 266.097 92.8283 275.084C95.2518 284.071 95.5216 293.503 93.6158 302.613C93.3557 303.814 92.9554 305.144 91.8748 305.714C90.1538 306.635 88.1926 305.024 87.0119 303.474C84.4478 300.077 82.5128 296.249 81.2986 292.171C80.298 288.73 80.7382 284.919 79.4375 281.668C76.2256 273.705 69.7117 266.123 63.5881 260.272Z" fill="#232D54"/>
<path d="M90.3439 301.082C90.2537 301.082 90.1644 301.064 90.0811 301.029C89.9979 300.995 89.9225 300.944 89.8592 300.879C89.7959 300.815 89.746 300.739 89.7124 300.655C89.6788 300.572 89.6621 300.482 89.6635 300.392C89.5778 290.411 87.2727 280.574 82.9152 271.593C78.5576 262.613 72.2566 254.713 64.4686 248.468C64.3912 248.413 64.3262 248.342 64.2777 248.261C64.2292 248.179 64.1983 248.088 64.187 247.994C64.1757 247.9 64.1842 247.804 64.212 247.714C64.2398 247.623 64.2863 247.539 64.3485 247.467C64.4053 247.392 64.4766 247.33 64.5582 247.283C64.6398 247.236 64.73 247.206 64.8233 247.195C64.9167 247.184 65.0114 247.191 65.1017 247.218C65.1921 247.244 65.2762 247.288 65.3491 247.347C73.3014 253.723 79.7346 261.788 84.1824 270.958C88.6301 280.127 90.9809 290.171 91.0643 300.362C91.0685 300.458 91.0528 300.553 91.0181 300.642C90.9834 300.732 90.9305 300.813 90.8627 300.881C90.795 300.948 90.7139 301.001 90.6245 301.036C90.5352 301.071 90.4396 301.086 90.3439 301.082Z" fill="white"/>
<path d="M81.9087 328.351C77.5762 329.741 72.143 328.831 69.6315 325.03C66.6297 320.568 68.5208 313.687 64.5685 310.076C62.3572 308.075 59.1053 307.865 56.1735 307.255C53.2418 306.645 50.0299 305.084 49.5496 302.083C48.9693 298.152 53.7921 294.891 53.1217 290.98C52.4513 287.069 47.1182 285.919 45.5473 282.338C44.1164 279.077 46.6479 275.076 50.0299 273.896C53.4119 272.715 57.1341 273.515 60.4761 274.756C63.818 275.996 67.04 277.637 70.582 278.077C74.1241 278.517 78.5267 277.807 81.2283 280.337C84.8504 283.718 82.7792 290.17 85.5709 294.251C87.452 296.992 90.9841 297.942 93.6857 299.863C95.3667 301.081 96.7317 302.684 97.6665 304.537C98.6012 306.39 99.0787 308.44 99.0588 310.516C98.9688 315.007 96.6074 318.258 93.2054 320.849C89.5932 323.599 86.3713 326.92 81.9087 328.351Z" fill="#232D54"/>
<path opacity="0.3" d="M81.9087 328.351C77.5762 329.741 72.143 328.831 69.6315 325.03C66.6297 320.568 68.5208 313.687 64.5685 310.076C62.3572 308.075 59.1053 307.865 56.1735 307.255C53.2418 306.645 50.0299 305.084 49.5496 302.083C48.9693 298.152 53.7921 294.891 53.1217 290.98C52.4513 287.069 47.1182 285.919 45.5473 282.338C44.1164 279.077 46.6479 275.076 50.0299 273.896C53.4119 272.715 57.1341 273.515 60.4761 274.756C63.818 275.996 67.04 277.637 70.582 278.077C74.1241 278.517 78.5267 277.807 81.2283 280.337C84.8504 283.718 82.7792 290.17 85.5709 294.251C87.452 296.992 90.9841 297.942 93.6857 299.863C95.3667 301.081 96.7317 302.684 97.6665 304.537C98.6012 306.39 99.0787 308.44 99.0588 310.516C98.9688 315.007 96.6074 318.258 93.2054 320.849C89.5932 323.599 86.3713 326.92 81.9087 328.351Z" fill="black"/>
<path d="M79.9577 297.632V297.562C79.3073 296.622 78.6369 295.702 77.9565 294.811C71.55 286.863 62.8511 281.08 53.0418 278.247C52.9551 278.219 52.8638 278.21 52.7733 278.219C52.6829 278.228 52.5952 278.255 52.5156 278.299C52.4361 278.343 52.3663 278.403 52.3106 278.475C52.2548 278.547 52.2142 278.629 52.1913 278.717C52.1669 278.803 52.1597 278.893 52.1702 278.982C52.1806 279.071 52.2085 279.156 52.2522 279.235C52.2958 279.313 52.3545 279.381 52.4247 279.437C52.495 279.492 52.5755 279.533 52.6616 279.557C62.196 282.318 70.652 287.939 76.8859 295.662C77.076 295.912 77.2461 296.172 77.4362 296.412C69.6716 293.561 61.747 295.181 57.5245 298.582C57.4162 298.673 57.3382 298.794 57.3008 298.929C57.2634 299.065 57.2684 299.209 57.3153 299.342C57.3621 299.475 57.4485 299.59 57.5628 299.673C57.6771 299.755 57.8138 299.8 57.9547 299.803C58.1111 299.804 58.2631 299.751 58.385 299.653C62.5674 296.282 71.2025 294.781 79.0271 298.572C83.9246 305.755 86.7968 314.124 87.342 322.799C87.3498 322.974 87.4249 323.14 87.5516 323.261C87.6784 323.382 87.8471 323.449 88.0224 323.449C88.1128 323.444 88.2011 323.421 88.2824 323.382C88.3637 323.342 88.4363 323.286 88.496 323.218C88.5556 323.15 88.6011 323.071 88.6297 322.986C88.6584 322.9 88.6696 322.809 88.6628 322.719C88.0906 313.722 85.0815 305.05 79.9577 297.632Z" fill="white"/>
<path d="M402.167 69.5038C402.168 69.2776 402.107 69.0554 401.993 68.8602C401.879 68.665 401.714 68.5039 401.517 68.3935L395.743 65.1826H395.693C395.505 65.0747 395.291 65.0179 395.073 65.0179C394.855 65.0179 394.642 65.0747 394.453 65.1826L354.899 88.0089C354.315 88.3498 353.829 88.8373 353.49 89.4232C353.152 90.0091 352.972 90.6731 352.968 91.3498V106.044L339.32 120.208C338.099 121.478 337.959 123.389 338.92 123.689L344.373 126.69C344.469 126.788 344.587 126.862 344.718 126.906C344.849 126.949 344.988 126.961 345.124 126.94L353.068 125.939V136.732C353.068 136.955 353.126 137.174 353.236 137.367C353.347 137.56 353.506 137.72 353.699 137.833L359.442 141.023L359.522 141.074H359.582C359.763 141.172 359.966 141.223 360.172 141.223C360.379 141.223 360.582 141.172 360.763 141.074L400.306 118.247C400.896 117.909 401.385 117.421 401.724 116.832C402.064 116.244 402.241 115.576 402.237 114.896L402.167 69.5038ZM359.782 91.96L359.652 92.11L359.782 91.96ZM359.412 92.4401L359.312 92.5801L359.412 92.4401ZM358.862 93.7305C358.857 93.787 358.857 93.8439 358.862 93.9005C358.857 93.8439 358.857 93.787 358.862 93.7305ZM360.072 91.6799L360.203 91.5599L360.072 91.6799Z" fill="#FF9C9C"/>
<path d="M388.569 83.7277C388.398 83.8227 388.242 83.9443 388.109 84.0878C388.004 84.2065 387.925 84.3463 387.879 84.4979C387.449 85.3643 387.081 86.2602 386.778 87.1786C386.448 87.9889 386.138 88.8091 385.858 89.6193C385.783 89.7657 385.726 89.9201 385.687 90.0794C385.592 90.2743 385.518 90.4789 385.467 90.6896L384.927 92.06L384.747 92.4501C384.57 92.8281 384.423 93.2194 384.307 93.6204C384.231 93.7937 384.203 93.9838 384.224 94.1716C384.245 94.3594 384.315 94.5384 384.427 94.6907C384.859 95.1 385.39 95.3896 385.968 95.5309H386.118L386.598 95.661L387.428 96.0711L387.589 96.1811C387.639 96.2411 387.699 96.3012 387.749 96.3712C387.805 96.4399 387.849 96.5177 387.879 96.6012C387.91 96.7362 387.91 96.8764 387.879 97.0114C387.829 97.2114 387.779 97.4215 387.739 97.6215C387.699 97.8216 387.489 98.3017 387.368 98.6218L387.188 99.0619L386.618 100.502C386.408 100.972 386.258 101.363 386.108 101.763C385.963 102.037 385.836 102.322 385.727 102.613L385.517 103.043L384.997 104.133L384.847 104.453L384.287 105.454L384.076 105.854L383.426 106.994C383.366 107.094 383.316 107.194 383.256 107.284L382.536 108.455L382.335 108.755L380.835 110.945L380.234 111.755L380.064 111.975L378.223 114.416L377.603 115.086C377.473 115.248 377.313 115.384 377.132 115.486C377.024 115.562 376.896 115.607 376.764 115.615C376.632 115.624 376.5 115.597 376.382 115.536L375.932 115.296C375.932 115.226 375.872 115.216 375.822 115.206C375.202 114.66 374.532 114.175 373.82 113.756C373.687 113.671 373.533 113.627 373.375 113.627C373.217 113.627 373.063 113.671 372.93 113.756C372.848 113.805 372.771 113.862 372.7 113.926C372.403 114.178 372.143 114.471 371.929 114.796C371.85 114.849 371.79 114.926 371.759 115.016C371.209 115.777 370.599 116.467 370.028 117.207C369.458 117.947 368.968 118.437 368.467 119.077C368.177 119.408 367.897 119.748 367.627 120.078C367.357 120.408 367.016 120.818 366.726 121.228C366.607 121.363 366.503 121.511 366.416 121.668C366.269 121.832 366.16 122.027 366.098 122.238C366.036 122.449 366.021 122.671 366.056 122.888C366.052 123.157 366.076 123.425 366.126 123.689C366.146 124.031 366.217 124.368 366.336 124.689C366.366 124.9 366.427 125.106 366.516 125.299C366.546 125.361 366.579 125.421 366.616 125.479C366.606 125.525 366.606 125.573 366.616 125.619C366.647 125.676 366.684 125.73 366.726 125.779C366.749 125.852 366.786 125.918 366.836 125.975C366.886 126.032 366.948 126.078 367.016 126.109C367.107 126.238 367.232 126.339 367.377 126.399L367.627 126.499H367.797L368.007 126.58H368.107C368.223 126.595 368.341 126.595 368.457 126.58C368.484 126.593 368.513 126.6 368.542 126.6C368.572 126.6 368.601 126.593 368.627 126.58C368.772 126.615 368.923 126.615 369.068 126.58C369.226 126.614 369.39 126.614 369.548 126.58C369.707 126.604 369.869 126.604 370.028 126.58H370.318C370.546 126.548 370.77 126.497 370.989 126.429H371.099H371.339L371.509 126.359L371.759 126.269C372.009 126.188 372.253 126.091 372.49 125.979L372.69 125.879L372.84 125.799C372.984 125.716 373.125 125.626 373.26 125.529L373.73 125.229C373.901 125.109 374.081 124.969 374.251 124.829C374.421 124.689 374.551 124.619 374.701 124.499L374.881 124.349L374.971 124.259L375.221 124.049C375.48 123.825 375.727 123.588 375.962 123.339C376.159 123.184 376.34 123.009 376.502 122.818C376.564 122.774 376.616 122.716 376.652 122.648C377.007 122.337 377.341 122.003 377.653 121.648C377.921 121.41 378.175 121.156 378.413 120.888C378.615 120.71 378.802 120.516 378.973 120.308L379.284 119.988C379.378 119.918 379.456 119.829 379.514 119.728C379.565 119.703 379.604 119.66 379.624 119.608L379.794 119.448C379.888 119.347 379.975 119.24 380.054 119.127C380.235 118.947 380.405 118.757 380.564 118.557L380.725 118.357L380.885 118.167C381.2 117.812 381.497 117.442 381.775 117.057C381.924 116.911 382.051 116.747 382.155 116.567C382.342 116.356 382.513 116.132 382.666 115.897C382.923 115.578 383.16 115.244 383.376 114.896C383.516 114.716 383.576 114.626 383.646 114.546L383.826 114.286C383.956 114.106 384.066 113.926 384.177 113.746L384.417 113.426C384.491 113.321 384.558 113.211 384.617 113.096C384.767 112.91 384.898 112.709 385.007 112.496C385.198 112.24 385.371 111.973 385.527 111.695C385.589 111.621 385.642 111.541 385.687 111.455C385.714 111.418 385.738 111.377 385.757 111.335C385.785 111.294 385.808 111.251 385.828 111.205L385.998 110.965C386.158 110.715 386.308 110.465 386.448 110.195L386.648 109.865L387.278 108.775C387.366 108.669 387.436 108.551 387.489 108.424C387.649 108.164 387.799 107.904 387.949 107.634C387.949 107.544 388.039 107.454 388.079 107.354C388.168 107.234 388.242 107.103 388.299 106.964L388.839 105.964L389.119 105.404C389.271 105.155 389.402 104.894 389.51 104.623C389.94 103.823 390.32 103.023 390.67 102.203L390.83 101.833C390.98 101.546 391.107 101.249 391.211 100.942C391.624 100.025 391.988 99.0871 392.301 98.1317L392.391 97.8916C392.6 97.3521 392.777 96.8011 392.922 96.2411C393.142 95.561 393.322 94.8908 393.492 94.2406C393.552 94.0105 393.612 93.7905 393.662 93.5604C393.704 93.4947 393.725 93.418 393.722 93.3403C393.728 93.2871 393.728 93.2335 393.722 93.1803L393.802 92.8802C394.049 92.0667 394.243 91.2381 394.383 90.3995V90.2695C394.401 90.1973 394.401 90.1217 394.383 90.0494C394.383 90.0494 394.383 89.9594 394.383 89.9194C394.377 89.8428 394.377 89.7659 394.383 89.6893C394.378 89.6094 394.378 89.5292 394.383 89.4493C394.445 89.096 394.475 88.7377 394.473 88.379C394.473 88.2289 394.473 88.0789 394.473 87.9289C394.498 87.8271 394.498 87.7206 394.473 87.6188C394.473 87.6188 394.473 87.5087 394.473 87.4487C394.464 87.1358 394.41 86.8258 394.313 86.5285C394.233 86.0841 394.092 85.6531 393.892 85.2481C393.66 84.5917 393.292 83.9918 392.812 83.4876C392.688 83.3015 392.51 83.1582 392.301 83.0775C392.301 83.0775 392.251 82.9875 392.191 83.0075C392.022 82.8852 391.819 82.8188 391.611 82.8174C390.981 82.7927 390.354 82.9018 389.77 83.1375L389.56 83.2276C389.38 83.2769 389.206 83.3439 389.039 83.4276L388.939 83.4876C388.879 83.5676 388.719 83.6377 388.569 83.7277Z" fill="white"/>
<path opacity="0.1" d="M358.892 139.983C358.89 140.202 358.945 140.418 359.052 140.609C359.159 140.8 359.314 140.96 359.502 141.074L353.759 137.883C353.567 137.77 353.407 137.61 353.296 137.417C353.186 137.224 353.128 137.005 353.128 136.782V125.989L358.902 125.279L358.892 139.983Z" fill="black"/>
<path opacity="0.2" d="M354.9 88.0089L394.453 65.1826C394.642 65.0747 394.856 65.0179 395.073 65.0179C395.291 65.0179 395.505 65.0747 395.694 65.1826H395.744L401.517 68.3935C401.322 68.283 401.101 68.225 400.877 68.225C400.652 68.225 400.432 68.283 400.236 68.3935L360.693 91.2198C359.957 91.6481 359.381 92.3048 359.052 93.0903L353.309 89.7794C353.638 89.0357 354.195 88.4158 354.9 88.0089Z" fill="white"/>
<path opacity="0.1" d="M353.008 106.054V91.3598C353.009 90.8149 353.125 90.2764 353.349 89.7794L359.092 93.0903C358.901 93.564 358.802 94.0699 358.802 94.5807V109.275L353.008 106.054Z" fill="white"/>
<path opacity="0.05" d="M339.32 120.208L353.008 106.054L358.802 109.275L345.114 123.429C344.053 124.519 343.813 126.089 344.373 126.7L338.92 123.699C337.959 123.359 338.099 121.478 339.32 120.208Z" fill="white"/>
<path d="M205.381 16.5346C204.621 13.6538 199.228 8.16225 193.865 8.28228C193.345 8.29239 192.833 8.40101 192.354 8.60237L88.1223 73.0201C86.3505 74.1417 84.9563 75.769 84.1199 77.6914C83.4517 79.1859 83.1106 80.8058 83.1193 82.4427V327.46C83.1193 333.702 89.7432 339.664 95.9669 336.793C96.1056 336.745 96.2396 336.685 96.3671 336.613L200.609 272.075C202.172 271.058 203.451 269.661 204.326 268.015C205.201 266.368 205.644 264.527 205.612 262.662V17.7149C205.621 17.3094 205.543 16.9067 205.381 16.5346Z" fill="#F7C0C4"/>
<path d="M97.6278 108.35C97.614 107.415 97.8382 106.493 98.2792 105.668C98.7203 104.844 99.3639 104.146 100.149 103.639L196.936 43.8021C197.33 43.5809 197.776 43.4701 198.227 43.4816C198.678 43.4931 199.117 43.6264 199.499 43.8673C199.88 44.1083 200.19 44.4479 200.394 44.8503C200.598 45.2526 200.689 45.7026 200.659 46.1527V243.727C200.672 244.66 200.447 245.581 200.006 246.404C199.565 247.226 198.922 247.923 198.137 248.429L101.35 308.365C100.957 308.59 100.511 308.703 100.058 308.694C99.6054 308.684 99.1641 308.551 98.7814 308.309C98.3988 308.068 98.0892 307.726 97.8859 307.322C97.6827 306.918 97.5934 306.466 97.6278 306.014V108.35Z" fill="#F4F8FB"/>
<path d="M193.874 8.27228C193.354 8.28239 192.842 8.39101 192.363 8.59237L88.1215 73.0201C86.3498 74.1417 84.9555 75.769 84.1191 77.6914L94.3252 83.233C95.153 81.8359 96.3021 80.6563 97.6771 79.792L201.919 15.3642C202.217 15.1861 202.55 15.0747 202.896 15.0378C203.241 15.001 203.591 15.0395 203.92 15.1508C204.249 15.2621 204.55 15.4434 204.802 15.6823C205.054 15.9212 205.252 16.212 205.381 16.5346C204.63 13.6438 199.237 8.15225 193.874 8.27228Z" fill="#E2ADB0"/>
<path d="M159.224 146.62C158.966 146.774 158.733 146.966 158.533 147.191C158.377 147.384 158.259 147.604 158.183 147.841C157.528 149.211 156.966 150.625 156.502 152.072C156.002 153.342 155.502 154.623 155.111 155.903C154.993 156.134 154.906 156.38 154.851 156.633C154.703 156.954 154.589 157.289 154.511 157.633L153.701 159.774C153.611 159.984 153.51 160.184 153.42 160.394C153.149 160.991 152.928 161.61 152.76 162.245C152.647 162.517 152.603 162.813 152.633 163.106C152.663 163.4 152.765 163.681 152.93 163.925C153.585 164.56 154.391 165.018 155.272 165.256L155.512 165.326C155.742 165.406 155.992 165.466 156.232 165.536L157.493 166.176L157.733 166.346C157.822 166.441 157.905 166.542 157.983 166.646C158.069 166.752 158.134 166.875 158.173 167.006C158.225 167.22 158.225 167.443 158.173 167.656L157.963 168.657C157.783 169.187 157.593 169.727 157.403 170.257L157.133 170.957C156.852 171.707 156.562 172.468 156.272 173.218C155.982 173.968 155.722 174.578 155.492 175.218C155.275 175.655 155.082 176.102 154.911 176.559C154.801 176.789 154.701 177.019 154.601 177.239L153.811 178.959L153.571 179.46L152.73 181.12C152.63 181.33 152.52 181.54 152.41 181.75L151.409 183.551C151.329 183.701 151.239 183.851 151.149 184.001C150.789 184.611 150.429 185.231 150.058 185.841L149.758 186.311C148.998 187.462 148.237 188.612 147.467 189.762L146.566 191.033L146.316 191.383C145.316 192.683 144.425 193.863 143.525 195.044C143.204 195.394 142.894 195.744 142.584 196.104C142.382 196.351 142.142 196.563 141.874 196.734C141.709 196.851 141.515 196.92 141.313 196.932C141.112 196.945 140.911 196.9 140.733 196.804L140.043 196.424C140.043 196.324 139.952 196.304 139.882 196.294C138.923 195.436 137.888 194.666 136.791 193.994C136.59 193.863 136.355 193.794 136.115 193.794C135.875 193.794 135.641 193.863 135.44 193.994C135.318 194.073 135.201 194.16 135.09 194.254C134.635 194.658 134.238 195.122 133.909 195.634C133.795 195.719 133.711 195.838 133.669 195.974C132.828 197.184 131.908 198.265 131.037 199.425C130.227 200.375 129.426 201.366 128.656 202.376C128.216 202.896 127.795 203.426 127.395 204.006C126.906 204.585 126.448 205.189 126.024 205.817C125.842 206.028 125.684 206.26 125.554 206.507C125.328 206.772 125.161 207.082 125.066 207.417C124.971 207.752 124.95 208.104 125.004 208.448C124.995 208.867 125.029 209.285 125.104 209.698C125.142 210.207 125.25 210.708 125.424 211.188C125.467 211.534 125.562 211.871 125.704 212.189C125.704 212.279 125.794 212.369 125.844 212.459C125.833 212.532 125.833 212.606 125.844 212.679C125.887 212.774 125.944 212.861 126.014 212.939C126.086 213.164 126.245 213.351 126.455 213.459C126.592 213.654 126.778 213.809 126.995 213.909L127.385 214.079L127.645 214.149C127.745 214.198 127.849 214.238 127.955 214.269H128.115C128.291 214.295 128.47 214.295 128.646 214.269C128.683 214.292 128.727 214.304 128.771 214.304C128.815 214.304 128.858 214.292 128.896 214.269C129.116 214.325 129.346 214.325 129.566 214.269C129.807 214.324 130.056 214.324 130.297 214.269C130.545 214.283 130.794 214.263 131.037 214.209L131.477 214.149C131.819 214.112 132.155 214.035 132.478 213.919H132.628C132.757 213.898 132.884 213.868 133.008 213.829C133.093 213.809 133.174 213.775 133.249 213.729L133.649 213.579C134.022 213.458 134.387 213.311 134.739 213.139L135.06 212.979L135.29 212.839C135.507 212.715 135.714 212.574 135.91 212.419C136.159 212.272 136.399 212.111 136.631 211.938C136.906 211.752 137.167 211.545 137.411 211.318C137.653 211.157 137.887 210.983 138.111 210.798C138.206 210.724 138.297 210.644 138.382 210.558L138.512 210.428L138.892 210.088C139.288 209.741 139.662 209.37 140.013 208.978C140.314 208.727 140.592 208.449 140.843 208.147C140.939 208.082 141.015 207.992 141.063 207.887C141.584 207.411 142.075 206.903 142.534 206.367C142.937 205.99 143.322 205.593 143.685 205.177C143.993 204.898 144.278 204.593 144.535 204.266L144.995 203.756C145.14 203.647 145.262 203.511 145.356 203.356C145.424 203.308 145.48 203.242 145.516 203.166L145.776 202.906C145.92 202.748 146.054 202.581 146.176 202.406C146.452 202.12 146.712 201.819 146.957 201.506L147.197 201.186L147.437 200.885C147.917 200.329 148.368 199.748 148.788 199.145C149.011 198.912 149.206 198.653 149.368 198.375C149.655 198.044 149.913 197.689 150.138 197.314C150.527 196.821 150.888 196.307 151.219 195.774C151.429 195.484 151.529 195.354 151.619 195.214C151.709 195.074 151.809 194.944 151.91 194.804C152.01 194.664 152.27 194.244 152.44 193.954L152.79 193.463C152.906 193.293 153.013 193.116 153.11 192.933C153.336 192.639 153.533 192.324 153.701 191.993C153.99 191.588 154.251 191.164 154.481 190.723C154.581 190.612 154.666 190.487 154.731 190.353C154.774 190.293 154.811 190.229 154.841 190.162L154.941 189.962C155.031 189.832 155.111 189.702 155.191 189.572C155.445 189.186 155.675 188.785 155.882 188.372L156.192 187.852L157.193 186.131C157.321 185.963 157.425 185.778 157.503 185.581C157.753 185.171 157.983 184.751 158.203 184.321L158.413 183.901C158.535 183.702 158.642 183.495 158.734 183.281L159.554 181.72C159.694 181.42 159.844 181.13 159.984 180.84C160.216 180.443 160.417 180.028 160.585 179.6C161.235 178.349 161.805 177.079 162.326 175.798L162.576 175.218C162.802 174.761 162.999 174.29 163.166 173.808C163.787 172.338 164.347 170.807 164.817 169.377C164.817 169.257 164.907 169.137 164.957 169.007C165.275 168.154 165.539 167.282 165.748 166.396C166.098 165.326 166.368 164.275 166.628 163.215C166.708 162.855 166.798 162.505 166.888 162.155C166.951 162.045 166.982 161.921 166.978 161.795C166.978 161.715 166.978 161.635 167.048 161.555L167.169 161.084C167.543 159.797 167.837 158.487 168.049 157.163V156.963C168.105 156.859 168.126 156.74 168.109 156.623V156.413C168.109 156.293 168.109 156.173 168.159 156.053V155.673C168.258 155.115 168.305 154.549 168.299 153.982C168.299 153.752 168.299 153.522 168.299 153.282C168.331 153.12 168.331 152.954 168.299 152.792C168.293 152.702 168.293 152.612 168.299 152.522C168.308 152.021 168.241 151.522 168.099 151.042C167.982 150.348 167.766 149.674 167.459 149.041C167.111 148.012 166.556 147.066 165.828 146.26C165.635 145.974 165.364 145.748 165.047 145.61C165.047 145.61 164.967 145.48 164.877 145.5C164.627 145.305 164.314 145.205 163.997 145.22C163.04 145.176 162.086 145.347 161.205 145.72L160.885 145.85C160.611 145.93 160.346 146.037 160.094 146.17L159.944 146.27C159.704 146.37 159.464 146.48 159.224 146.62Z" fill="#FF5454"/>
<g clip-path="url(#clip0)">
<path d="M298.667 216.691C298.667 216.691 248.034 215.067 248.034 241.931C248.034 272.36 258.095 329.379 298.667 328.786C339.239 328.194 346.679 248.251 347.098 244.685C347.131 244.652 349.255 219.062 298.667 216.691Z" fill="#FF5454"/>
<path d="M345.92 237.717C345.859 237.781 345.788 237.837 345.711 237.881L345.073 238.309C344.511 238.693 343.653 239.209 342.53 239.846C339.343 241.609 336.002 243.078 332.547 244.235C327.42 245.971 322.132 247.195 316.763 247.889C310.193 248.72 303.572 249.086 296.95 248.987C290.332 249.012 283.718 248.679 277.137 247.988C271.735 247.427 266.448 246.062 261.452 243.939C258.098 242.473 254.994 240.496 252.25 238.079C251.513 237.414 250.811 236.711 250.148 235.972L249.653 235.379C249.542 235.248 249.487 235.171 249.498 235.171C249.509 235.171 249.576 235.171 249.697 235.346L250.236 235.895C250.709 236.378 251.425 237.069 252.437 237.914C255.219 240.242 258.331 242.146 261.672 243.566C266.639 245.63 271.883 246.958 277.236 247.505C283.819 248.166 290.433 248.485 297.049 248.46C303.645 248.537 310.238 248.171 316.785 247.363C322.129 246.696 327.397 245.516 332.514 243.84C335.962 242.709 339.308 241.292 342.519 239.604C343.62 239.001 344.522 238.507 345.106 238.167L345.777 237.783C345.824 237.758 345.871 237.736 345.92 237.717Z" fill="#263238"/>
<path d="M315.321 247.856C315.372 248.102 315.398 248.352 315.398 248.602C315.398 249.096 315.398 249.832 315.398 250.797C315.41 253.461 315.13 256.118 314.561 258.72C314.164 260.522 313.585 262.28 312.833 263.966C312.003 265.92 310.891 267.743 309.531 269.375C308.011 271.182 306.181 272.706 304.126 273.875C303.034 274.481 301.883 274.977 300.692 275.356C299.45 275.724 298.167 275.938 296.873 275.993C294.309 276.07 291.773 275.456 289.531 274.215C287.462 273.062 285.638 271.519 284.16 269.672C281.694 266.525 280.083 262.799 279.482 258.852C279.044 256.22 278.878 253.551 278.986 250.885C278.986 249.941 279.063 249.217 279.107 248.69C279.113 248.435 279.146 248.181 279.206 247.933C279.255 248.183 279.281 248.436 279.283 248.69C279.283 249.239 279.283 249.963 279.283 250.885C279.266 253.527 279.495 256.164 279.966 258.764C280.618 262.619 282.23 266.249 284.655 269.321C286.101 271.107 287.88 272.598 289.894 273.71C292.047 274.896 294.48 275.484 296.939 275.411C298.185 275.357 299.42 275.151 300.615 274.796C301.76 274.431 302.866 273.953 303.917 273.37C305.922 272.225 307.71 270.739 309.201 268.98C310.549 267.391 311.661 265.617 312.503 263.713C313.257 262.059 313.847 260.335 314.264 258.567C314.859 255.994 315.198 253.37 315.277 250.731C315.277 249.843 315.277 249.129 315.332 248.537C315.313 248.31 315.309 248.083 315.321 247.856Z" fill="#263238"/>
<path d="M327.373 309.846C327.307 309.846 326.977 308.749 326.108 306.883C324.879 304.245 323.306 301.78 321.43 299.553C318.641 296.252 315.217 293.542 311.358 291.586C306.614 289.227 301.353 288.092 296.056 288.284C290.758 288.476 285.593 289.988 281.034 292.683C277.33 294.942 274.115 297.916 271.579 301.429C269.88 303.8 268.5 306.383 267.473 309.111C266.757 311.042 266.515 312.172 266.449 312.15C266.473 311.875 266.525 311.603 266.603 311.338C266.713 310.801 266.945 310.022 267.264 309.034C268.216 306.252 269.557 303.618 271.248 301.21C273.772 297.622 277.004 294.586 280.747 292.288C285.368 289.514 290.618 287.953 296.007 287.75C301.396 287.546 306.75 288.707 311.567 291.125C315.471 293.137 318.923 295.918 321.716 299.3C323.596 301.59 325.145 304.131 326.317 306.85C326.631 307.566 326.907 308.299 327.142 309.045C327.236 309.307 327.314 309.574 327.373 309.846Z" fill="#263238"/>
<path d="M319.503 283.147L321.826 272.722H342.288C341.562 275.806 340.538 279.416 339.382 283.257L319.503 283.147Z" fill="#FAFAFA"/>
<path d="M273.78 283.147L271.446 272.722H250.973C251.7 275.806 252.305 279.416 253.472 283.257L273.78 283.147Z" fill="#FAFAFA"/>
<path opacity="0.4" d="M344.467 235.171C339.58 227.204 326.614 217.964 298.667 216.691C298.667 216.691 267.352 215.682 253.989 228.312C252.721 229.609 251.575 231.02 250.566 232.526C249.752 234.041 261.023 247.516 297.203 246.364C334.539 245.168 344.467 235.171 344.467 235.171Z" fill="black"/>
<path d="M247.176 187.568C245.382 183.562 244.512 178.975 245.734 174.761C246.956 170.547 250.588 166.871 254.969 166.487" fill="#263238"/>
<path d="M253.516 166.74C253.516 166.816 252.779 167.409 251.722 168.605C250.352 170.148 249.203 171.872 248.31 173.73C247.476 175.626 246.763 177.572 246.174 179.557C245.99 180.403 245.747 181.235 245.448 182.048C245.429 181.172 245.544 180.299 245.789 179.458C246.266 177.409 246.936 175.411 247.792 173.488C248.701 171.574 249.933 169.829 251.436 168.331C252.009 167.661 252.718 167.119 253.516 166.74Z" fill="#FF5454"/>
<path d="M348.375 187.568C350.169 183.562 351.038 178.975 349.816 174.761C348.595 170.547 344.962 166.871 340.582 166.487" fill="#263238"/>
<path d="M342.024 166.74C342.822 167.119 343.531 167.661 344.104 168.331C345.607 169.829 346.839 171.574 347.748 173.488C348.596 175.411 349.259 177.41 349.729 179.458C349.974 180.299 350.089 181.172 350.07 182.048C349.782 181.234 349.55 180.402 349.377 179.557C348.788 177.572 348.075 175.626 347.241 173.73C346.349 171.865 345.201 170.132 343.829 168.583C342.772 167.409 342.024 166.816 342.024 166.74Z" fill="#FF5454"/>
<path d="M251.226 207.452C248.787 204.97 246.996 201.929 246.011 198.596C245.027 195.263 244.878 191.739 245.58 188.336C248.464 173.653 259.228 147.185 298.667 147.733C340.053 148.326 347.813 176.879 349.156 190.64C349.434 193.454 349.151 196.295 348.323 198.999C347.496 201.703 346.141 204.218 344.335 206.398C338.171 213.805 325.106 223.363 298.667 223.352C272.481 223.341 258.37 214.672 251.226 207.452Z" fill="#FF5454"/>
<path d="M280.241 149.489C280.241 149.489 280.34 149.642 280.472 149.972L281.034 151.42C281.529 152.671 282.222 154.493 283.301 156.633C284.527 159.151 286.206 161.423 288.254 163.337C290.723 165.715 294.023 167.042 297.456 167.036C300.882 166.838 304.144 165.505 306.724 163.25C308.836 161.405 310.602 159.202 311.942 156.742C312.868 155.087 313.699 153.379 314.429 151.629C314.675 150.975 314.954 150.334 315.266 149.708C315.253 149.894 315.208 150.076 315.134 150.246C315.035 150.575 314.869 151.08 314.627 151.705C313.981 153.504 313.205 155.253 312.305 156.94C310.979 159.472 309.204 161.744 307.065 163.645C304.406 166.008 301.024 167.404 297.467 167.606C295.624 167.651 293.794 167.276 292.118 166.509C290.564 165.815 289.135 164.87 287.891 163.711C285.816 161.739 284.135 159.393 282.938 156.797C282.125 155.076 281.419 153.305 280.825 151.497C280.615 150.86 280.461 150.4 280.362 150.016C280.295 149.847 280.254 149.67 280.241 149.489Z" fill="#263238"/>
<path d="M324.82 205.795C305.623 210.469 286.878 210.645 268.629 205.992C265.295 205.128 262.345 203.182 260.243 200.463C258.141 197.743 257.005 194.403 257.016 190.969V190.706C257.016 186.585 258.658 182.633 261.581 179.719C264.504 176.804 268.469 175.167 272.602 175.167H321.11C325.238 175.176 329.194 176.817 332.11 179.73C335.026 182.643 336.663 186.591 336.663 190.706C336.666 194.179 335.501 197.553 333.354 200.289C331.207 203.024 328.202 204.962 324.82 205.795Z" fill="#263238"/>
<path d="M282.508 193.691C282.397 194.379 282.084 195.018 281.608 195.528C281.133 196.039 280.516 196.397 279.836 196.558C279.156 196.719 278.444 196.675 277.789 196.432C277.134 196.189 276.566 195.759 276.157 195.194C275.747 194.629 275.515 193.956 275.489 193.26C275.463 192.564 275.645 191.876 276.012 191.283C276.378 190.69 276.913 190.218 277.548 189.928C278.183 189.638 278.891 189.542 279.58 189.652C280.039 189.726 280.478 189.889 280.873 190.131C281.268 190.374 281.612 190.692 281.884 191.067C282.156 191.442 282.351 191.867 282.458 192.317C282.565 192.767 282.582 193.234 282.508 193.691Z" fill="white"/>
<path d="M322.993 191.628C322.882 192.315 322.568 192.955 322.093 193.465C321.617 193.976 321 194.334 320.321 194.495C319.641 194.656 318.928 194.612 318.273 194.369C317.618 194.126 317.05 193.695 316.641 193.131C316.232 192.566 315.999 191.893 315.974 191.197C315.948 190.501 316.13 189.813 316.496 189.22C316.863 188.627 317.397 188.155 318.032 187.865C318.668 187.575 319.375 187.479 320.065 187.589C320.523 187.663 320.962 187.826 321.358 188.068C321.753 188.311 322.096 188.629 322.368 189.004C322.64 189.379 322.835 189.804 322.942 190.254C323.049 190.704 323.067 191.171 322.993 191.628Z" fill="white"/>
<path d="M307.451 192.1C307.616 193.15 307.43 194.226 306.922 195.161C306.453 196.206 305.744 197.127 304.853 197.85C303.757 198.71 302.425 199.219 301.033 199.309C299.65 199.42 298.266 199.102 297.071 198.398C296.098 197.807 295.282 196.99 294.693 196.017C294.084 195.156 293.778 194.118 293.824 193.065C294.162 193.995 294.594 194.888 295.112 195.732C295.711 196.58 296.488 197.288 297.39 197.806C298.489 198.406 299.74 198.673 300.989 198.574C302.249 198.483 303.456 198.033 304.468 197.279C305.299 196.643 305.985 195.839 306.482 194.92C306.891 194.011 307.215 193.067 307.451 192.1Z" fill="white"/>
</g>
<defs>
<clipPath id="clip0">
<rect width="105.228" height="181.031" fill="white" transform="translate(245.145 148.041)"/>
</clipPath>
</defs>
</svg>
