<svg width="70" height="70" viewBox="0 0 70 70" fill="none" xmlns="http://www.w3.org/2000/svg">
<rect width="70" height="70" rx="7" fill="#FCD9D9"/>
<g clip-path="url(#clip0)">
<path d="M35.934 31.9587L31.9583 35.9344L42.1104 46.0869L46.0865 42.1108L35.934 31.9587Z" fill="#FF5454"/>
<path d="M30.6332 34.6092L34.6089 30.6335L31.2959 27.3207C30.9299 26.9547 30.3368 26.9547 29.9707 27.3207L27.3204 29.971C26.9544 30.3371 26.9544 30.9302 27.3204 31.2962L30.6332 34.6092Z" fill="#FF5454"/>
<path d="M47.4117 43.4359L43.4355 47.4121L46.7488 50.7255C46.9245 50.9012 47.1624 51.0001 47.4113 51.0001C47.6602 51.0001 47.8982 50.9012 48.0739 50.7255L50.7251 48.0742C50.9009 47.8985 50.9997 47.6606 50.9997 47.4117C50.9997 47.1628 50.9009 46.9248 50.7251 46.7491L47.4117 43.4359Z" fill="#FF5454"/>
<path d="M22.682 36.8721C22.4422 36.8721 22.2024 36.7806 22.0194 36.5975C21.6534 36.2315 21.6534 35.6384 22.0194 35.2724L24.6707 32.6211C25.0367 32.2551 25.6298 32.2551 25.9958 32.6211C26.3619 32.9872 26.3619 33.5803 25.9958 33.9463L23.3446 36.5975C23.1614 36.7806 22.9217 36.8721 22.682 36.8721Z" fill="#FF5454"/>
<path d="M33.2842 26.27C33.0445 26.27 32.8047 26.1784 32.6217 25.9954C32.2557 25.6293 32.2557 25.0363 32.6217 24.6702L35.2729 22.019C35.639 21.6529 36.2321 21.6529 36.5981 22.019C36.9641 22.385 36.9641 22.9781 36.5981 23.3441L33.9469 25.9954C33.7638 26.1784 33.524 26.27 33.2842 26.27Z" fill="#FF5454"/>
<path d="M29.3085 24.6227C28.7905 24.6227 28.3713 24.2036 28.3713 23.6856V19.9371C28.3713 19.4191 28.7905 19 29.3085 19C29.8264 19 30.2456 19.4191 30.2456 19.9371V23.6856C30.2456 24.2036 29.8264 24.6227 29.3085 24.6227Z" fill="#FF5454"/>
<path d="M25.333 26.27C25.0932 26.27 24.8534 26.1784 24.6704 25.9954L22.0192 23.3442C21.6531 22.9782 21.6531 22.3851 22.0192 22.019C22.3852 21.653 22.9783 21.653 23.3443 22.019L25.9956 24.6703C26.3616 25.0363 26.3616 25.6294 25.9956 25.9954C25.8125 26.1784 25.5727 26.27 25.333 26.27Z" fill="#FF5454"/>
<path d="M23.6856 30.2455H19.9371C19.4191 30.2455 19 29.8264 19 29.3084C19 28.7904 19.4191 28.3713 19.9371 28.3713H23.6856C24.2036 28.3713 24.6227 28.7904 24.6227 29.3084C24.6227 29.8264 24.2036 30.2455 23.6856 30.2455Z" fill="#FF5454"/>
</g>
<defs>
<clipPath id="clip0">
<rect width="32" height="32" fill="white" transform="translate(19 19)"/>
</clipPath>
</defs>
</svg>
