<svg width="70" height="70" viewBox="0 0 70 70" fill="none" xmlns="http://www.w3.org/2000/svg">
<rect width="70" height="70" rx="7" fill="#FCD9D9"/>
<path d="M48.7978 28.6793L35.5462 19.1757C35.2186 18.9414 34.7813 18.9414 34.4536 19.1757L21.202 28.6793C20.6777 29.0555 20.684 29.8371 21.2093 30.2074L34.4609 39.5235C34.7849 39.7504 35.2149 39.7504 35.5389 39.5235L48.7905 30.2074C49.3158 29.8371 49.3222 29.0555 48.7978 28.6793Z" fill="#FF5454"/>
<path d="M48.7978 34.4262L47.5245 33.5132L35.5389 41.9388C35.2149 42.1658 34.7849 42.1658 34.4609 41.9388L22.4754 33.5132L21.202 34.4262C20.6777 34.8024 20.684 35.5841 21.2093 35.9544L34.4609 45.2705C34.7849 45.4974 35.2149 45.4974 35.5389 45.2705L48.7905 35.9544C49.3158 35.5842 49.3222 34.8024 48.7978 34.4262Z" fill="#FF5454"/>
<path d="M48.7978 40.1733L47.5245 39.2602L35.5389 47.6858C35.2149 47.9127 34.7849 47.9127 34.4609 47.6858L22.4753 39.2601L21.202 40.1732C20.6777 40.5485 20.6815 41.3368 21.2166 41.7059L34.4682 50.8343C34.7876 51.0552 35.2121 51.0552 35.5315 50.8343L48.7831 41.7059C49.3182 41.3369 49.322 40.5484 48.7978 40.1733Z" fill="#FF5454"/>
</svg>
