<svg width="565" height="344" viewBox="0 0 565 344" fill="none" xmlns="http://www.w3.org/2000/svg">
<path d="M526.768 214.975L533.193 225.602L539.608 236.219L546.075 225.622L552.543 215.025L543.629 215.015L543.725 174.073L535.768 174.063L535.672 214.995L526.768 214.975Z" fill="#E5ECF2"/>
<path d="M549.639 186.874L553.458 193.204L557.287 199.534L561.149 193.224L565 186.905L559.691 186.895L559.745 162.485L555 162.475L554.947 186.884L549.639 186.874Z" fill="#E5ECF2"/>
<path d="M109.121 21.2346L102.707 10.6173L96.2924 0L89.8247 10.5971L83.3569 21.184L92.2607 21.2042L92.1756 62.1364L100.133 62.1566L100.218 21.2143L109.121 21.2346Z" fill="#E5ECF2"/>
<path d="M83.761 48.162L79.8782 41.7411L75.9955 35.3202L72.0914 41.731L68.1768 48.1317L73.5594 48.1418L73.5169 72.8852L78.3251 72.8953L78.3783 48.1519L83.761 48.162Z" fill="#E5ECF2"/>
<path d="M453.059 36.4526H126.088V278.294H453.059V36.4526Z" fill="white"/>
<path d="M453.059 278.294C453.059 276.484 452.964 182.435 452.825 36.4526L453.059 36.6649L126.12 36.7155L126.397 36.4526C126.397 123.626 126.397 206.076 126.397 278.294L126.152 278.051L453.123 278.294L126.152 278.527H125.908V278.294C125.908 206.076 125.908 123.585 125.908 36.4526V36.1897H126.216H453.155H453.379V36.4122C453.166 182.435 453.059 276.484 453.059 278.294Z" fill="#F7C0C4"/>
<path d="M215.998 257.98C215.839 257.98 215.722 231.689 215.722 199.271C215.722 166.853 215.839 140.553 215.998 140.553C216.158 140.553 216.275 166.843 216.275 199.271C216.275 231.699 216.147 257.98 215.998 257.98Z" fill="#232D54"/>
<path d="M357.895 257.98C357.735 257.98 357.618 231.689 357.618 199.271C357.618 166.853 357.735 140.553 357.895 140.553C358.054 140.553 358.171 166.843 358.171 199.271C358.171 231.699 358.044 257.98 357.895 257.98Z" fill="#232D54"/>
<path d="M264.432 257.98C264.283 257.98 264.155 224.368 264.155 182.921C264.155 141.473 264.283 107.861 264.432 107.861C264.581 107.861 264.708 141.463 264.708 182.921C264.708 224.379 264.591 257.98 264.432 257.98Z" fill="#232D54"/>
<path d="M166.246 257.98C166.086 257.98 165.969 224.368 165.969 182.921C165.969 141.473 166.086 107.861 166.246 107.861C166.405 107.861 166.522 141.463 166.522 182.921C166.522 224.379 166.395 257.98 166.246 257.98Z" fill="#232D54"/>
<path d="M413.583 257.98C413.434 257.98 413.306 224.368 413.306 182.921C413.306 141.473 413.434 107.861 413.583 107.861C413.732 107.861 413.859 141.463 413.859 182.921C413.859 224.379 413.742 257.98 413.583 257.98Z" fill="#232D54"/>
<path d="M306.919 257.98C306.759 257.98 306.642 219.171 306.642 171.322C306.642 123.474 306.759 84.645 306.919 84.645C307.078 84.645 307.195 123.444 307.195 171.322C307.195 219.201 307.068 257.98 306.919 257.98Z" fill="#232D54"/>
<path d="M217.158 140.553C217.158 140.771 217.09 140.984 216.962 141.165C216.835 141.346 216.654 141.487 216.442 141.571C216.23 141.654 215.997 141.676 215.772 141.634C215.547 141.591 215.341 141.486 215.178 141.332C215.016 141.178 214.906 140.981 214.861 140.768C214.816 140.554 214.839 140.332 214.927 140.131C215.015 139.929 215.164 139.757 215.354 139.636C215.545 139.515 215.769 139.45 215.998 139.45C216.306 139.45 216.601 139.567 216.818 139.773C217.036 139.98 217.158 140.26 217.158 140.553Z" fill="#232D54"/>
<path d="M264.432 108.964C265.072 108.964 265.591 108.47 265.591 107.861C265.591 107.253 265.072 106.759 264.432 106.759C263.792 106.759 263.272 107.253 263.272 107.861C263.272 108.47 263.792 108.964 264.432 108.964Z" fill="#232D54"/>
<path d="M264.432 111.724C263.629 111.722 262.844 111.494 262.177 111.068C261.51 110.643 260.991 110.039 260.685 109.333C260.379 108.627 260.3 107.85 260.458 107.102C260.616 106.353 261.004 105.666 261.573 105.127C262.142 104.587 262.866 104.22 263.654 104.072C264.442 103.924 265.258 104.001 266 104.294C266.742 104.586 267.376 105.082 267.822 105.717C268.268 106.352 268.506 107.098 268.506 107.861C268.503 108.887 268.073 109.869 267.309 110.593C266.545 111.317 265.511 111.724 264.432 111.724ZM264.432 104.252C263.681 104.254 262.948 104.467 262.325 104.865C261.702 105.263 261.217 105.827 260.931 106.487C260.645 107.147 260.571 107.872 260.719 108.572C260.867 109.271 261.229 109.914 261.761 110.418C262.292 110.921 262.969 111.264 263.706 111.403C264.442 111.541 265.205 111.469 265.898 111.196C266.592 110.922 267.184 110.459 267.601 109.866C268.018 109.273 268.24 108.575 268.24 107.861C268.237 106.903 267.835 105.985 267.121 105.308C266.407 104.632 265.44 104.252 264.432 104.252Z" fill="#232D54"/>
<path d="M306.919 85.7472C307.559 85.7472 308.078 85.2537 308.078 84.645C308.078 84.0363 307.559 83.5428 306.919 83.5428C306.278 83.5428 305.759 84.0363 305.759 84.645C305.759 85.2537 306.278 85.7472 306.919 85.7472Z" fill="#232D54"/>
<path d="M357.895 142.757C358.535 142.757 359.054 142.264 359.054 141.655C359.054 141.046 358.535 140.553 357.895 140.553C357.254 140.553 356.735 141.046 356.735 141.655C356.735 142.264 357.254 142.757 357.895 142.757Z" fill="#232D54"/>
<path d="M413.615 108.964C414.255 108.964 414.775 108.47 414.775 107.861C414.775 107.253 414.255 106.759 413.615 106.759C412.975 106.759 412.456 107.253 412.456 107.861C412.456 108.47 412.975 108.964 413.615 108.964Z" fill="#232D54"/>
<path d="M167.405 108.964C167.405 109.182 167.337 109.395 167.21 109.576C167.083 109.757 166.902 109.898 166.69 109.982C166.478 110.065 166.245 110.087 166.02 110.045C165.795 110.002 165.588 109.897 165.426 109.743C165.264 109.589 165.153 109.392 165.109 109.179C165.064 108.965 165.087 108.743 165.175 108.542C165.262 108.34 165.411 108.168 165.602 108.047C165.792 107.926 166.017 107.861 166.246 107.861C166.553 107.861 166.848 107.978 167.066 108.184C167.283 108.391 167.405 108.671 167.405 108.964Z" fill="#232D54"/>
<path d="M424.561 160.988C424.268 161.115 423.961 161.21 423.646 161.271C422.749 161.495 421.871 161.782 421.019 162.131C417.785 163.565 414.907 165.633 412.572 168.198C409.381 171.454 406.243 175.984 402.275 181.08C400.167 183.829 397.826 186.41 395.275 188.795C393.856 190.094 392.338 191.29 390.733 192.375C389.007 193.486 387.172 194.438 385.255 195.216C381.098 196.811 376.626 197.525 372.149 197.31C369.774 197.261 367.41 196.98 365.096 196.47C362.639 195.974 360.314 195.003 358.267 193.619C356.182 192.165 354.382 190.375 352.948 188.33C351.48 186.308 350.161 184.164 348.884 181.99C346.331 177.612 343.693 173.203 340.683 168.774C337.672 164.345 334.992 159.563 331.939 154.921C328.965 150.128 325.365 145.711 321.226 141.776C319.089 139.825 316.667 138.177 314.035 136.882C311.381 135.589 308.494 134.782 305.525 134.506C299.372 133.942 293.186 135.199 287.813 138.106C282.491 141.158 277.897 145.232 274.325 150.068C270.757 154.778 267.519 159.706 264.634 164.821C261.817 169.793 258.702 174.607 255.305 179.24C252.047 183.727 248.252 187.84 243.997 191.495C242.933 192.355 241.869 193.224 240.72 193.983C239.597 194.772 238.429 195.501 237.22 196.167C234.861 197.466 232.328 198.456 229.689 199.109C228.4 199.446 227.083 199.679 225.753 199.807C225.097 199.889 224.436 199.927 223.774 199.918C223.115 199.918 222.455 199.918 221.806 199.918C219.243 199.778 216.709 199.329 214.264 198.584C209.716 197.057 205.418 194.926 201.499 192.254C197.712 189.776 194.255 187.198 190.861 184.892C187.719 182.622 184.336 180.67 180.766 179.068C177.586 177.669 174.193 176.754 170.714 176.358C167.694 176.025 164.635 176.228 161.693 176.955C161.027 177.112 160.373 177.312 159.735 177.551C159.107 177.733 158.495 177.963 157.906 178.239C156.799 178.72 155.732 179.281 154.714 179.917C153.006 180.998 151.4 182.22 149.917 183.568L148.247 185.307C147.764 185.772 147.317 186.269 146.906 186.793L145.215 188.907C145.031 189.159 144.821 189.392 144.587 189.604C144.715 189.323 144.88 189.058 145.077 188.816L146.64 186.601C147.033 186.059 147.463 185.542 147.928 185.054C148.428 184.498 148.991 183.891 149.566 183.244C151.033 181.821 152.639 180.534 154.363 179.402C155.377 178.728 156.444 178.13 157.555 177.612C158.156 177.323 158.778 177.077 159.416 176.874C160.072 176.619 160.743 176.403 161.427 176.227C164.467 175.443 167.634 175.203 170.767 175.519C174.356 175.88 177.861 176.784 181.149 178.198C184.809 179.788 188.281 181.741 191.51 184.023C194.936 186.328 198.414 188.856 202.148 191.283C205.979 193.847 210.168 195.889 214.594 197.35C216.926 198.049 219.343 198.461 221.785 198.573C222.402 198.573 223.019 198.573 223.647 198.573C224.269 198.577 224.891 198.54 225.508 198.462C226.766 198.327 228.011 198.101 229.232 197.785C234.323 196.38 239 193.867 242.89 190.444C247.032 186.846 250.726 182.809 253.9 178.411C257.255 173.813 260.334 169.04 263.123 164.113C266.017 158.942 269.269 153.959 272.857 149.198C276.567 144.187 281.335 139.965 286.856 136.801C292.533 133.744 299.062 132.42 305.557 133.009C308.765 133.282 311.89 134.126 314.769 135.497C317.538 136.866 320.085 138.606 322.333 140.664C326.561 144.696 330.239 149.217 333.279 154.122C336.342 158.824 339.066 163.557 341.97 168.006C344.874 172.455 347.64 176.955 350.15 181.313C352.661 185.671 355.182 189.938 359.075 192.557C360.984 193.863 363.158 194.779 365.458 195.247C367.681 195.744 369.951 196.028 372.234 196.096C376.535 196.332 380.839 195.68 384.85 194.185C386.711 193.455 388.493 192.554 390.169 191.495C391.742 190.463 393.228 189.317 394.616 188.067C397.155 185.743 399.492 183.227 401.605 180.544C405.626 175.539 408.892 171.019 412.179 167.783C414.604 165.198 417.606 163.159 420.965 161.817C421.844 161.495 422.752 161.252 423.678 161.089C423.969 161.032 424.264 160.999 424.561 160.988Z" fill="#FF5454"/>
<path d="M222.094 63.5924H165.086V66.6057H222.094V63.5924Z" fill="#232D54"/>
<path d="M193.255 70.6504H165.086V73.6637H193.255V70.6504Z" fill="#232D54"/>
<path d="M130.493 16.7146H448.262C449.527 16.7146 450.741 17.1895 451.64 18.036C452.538 18.8825 453.049 20.0321 453.06 21.2345V36.4021H125.695V21.2345C125.707 20.0321 126.217 18.8825 127.115 18.036C128.014 17.1895 129.228 16.7146 130.493 16.7146Z" fill="#F7C0C4"/>
<path d="M142.662 26.9678C142.662 27.3878 142.531 27.7983 142.286 28.1475C142.04 28.4967 141.691 28.7689 141.283 28.9296C140.875 29.0904 140.426 29.1324 139.992 29.0505C139.559 28.9685 139.161 28.7663 138.849 28.4693C138.536 28.1724 138.323 27.794 138.237 27.3821C138.151 26.9702 138.195 26.5432 138.364 26.1552C138.533 25.7672 138.82 25.4356 139.187 25.2022C139.555 24.9689 139.986 24.8444 140.428 24.8444C141.021 24.8444 141.589 25.0681 142.008 25.4663C142.427 25.8645 142.662 26.4046 142.662 26.9678Z" fill="white"/>
<path d="M152.417 26.9678C152.417 27.3878 152.286 27.7983 152.041 28.1475C151.795 28.4967 151.446 28.7689 151.038 28.9296C150.63 29.0904 150.181 29.1324 149.747 29.0505C149.314 28.9685 148.916 28.7663 148.604 28.4693C148.291 28.1724 148.078 27.794 147.992 27.3821C147.906 26.9702 147.95 26.5432 148.119 26.1552C148.288 25.7672 148.575 25.4356 148.942 25.2022C149.309 24.9689 149.741 24.8444 150.183 24.8444C150.776 24.8444 151.344 25.0681 151.763 25.4663C152.182 25.8645 152.417 26.4046 152.417 26.9678Z" fill="white"/>
<path d="M162.161 26.9678C162.161 27.3878 162.03 27.7983 161.785 28.1475C161.539 28.4967 161.19 28.7689 160.782 28.9296C160.374 29.0904 159.925 29.1324 159.491 29.0505C159.058 28.9685 158.66 28.7663 158.348 28.4693C158.035 28.1724 157.822 27.794 157.736 27.3821C157.65 26.9702 157.694 26.5432 157.863 26.1552C158.032 25.7672 158.319 25.4356 158.686 25.2022C159.054 24.9689 159.485 24.8444 159.927 24.8444C160.52 24.8444 161.088 25.0681 161.507 25.4663C161.926 25.8645 162.161 26.4046 162.161 26.9678Z" fill="white"/>
<path d="M130.822 178.765H3.43598C1.53834 178.765 0 180.227 0 182.031V211.284C0 213.088 1.53834 214.55 3.43598 214.55H130.822C132.72 214.55 134.258 213.088 134.258 211.284V182.031C134.258 180.227 132.72 178.765 130.822 178.765Z" fill="#E5ECF2"/>
<path d="M28.2964 202.618C27.2844 203.818 25.9208 204.706 24.378 205.169C22.8353 205.632 21.1826 205.65 19.6291 205.221C18.0755 204.791 16.6909 203.934 15.6502 202.756C14.6095 201.578 13.9596 200.134 13.7825 198.605C13.6055 197.077 13.9093 195.532 14.6556 194.168C15.4019 192.803 16.5571 191.68 17.9751 190.939C19.3932 190.199 21.0104 189.875 22.6222 190.008C24.2341 190.141 25.7682 190.725 27.0305 191.687C28.7233 192.977 29.8077 194.854 30.0451 196.904C30.2825 198.953 29.6535 201.009 28.2964 202.618Z" fill="white"/>
<path d="M26.5196 195.156C25.1747 196.761 23.6908 198.256 22.0837 199.625C21.722 199.969 21.3603 200.293 21.0199 200.636L20.8284 200.818L20.6369 200.636C19.4179 199.571 18.31 198.396 17.3286 197.128C18.656 198.042 19.8885 199.075 21.0093 200.212H20.6369L21.7007 199.2C23.1842 197.725 24.7962 196.372 26.5196 195.156Z" fill="#232D54"/>
<path d="M121.153 194.033C121.153 194.175 104.132 194.296 83.0377 194.296C61.9432 194.296 44.9229 194.175 44.9229 194.033C44.9229 193.892 61.9432 193.77 83.0377 193.77C104.132 193.77 121.153 193.882 121.153 194.033Z" fill="#232D54"/>
<path d="M89.8884 201.101C89.8884 201.253 80.0166 201.374 67.8471 201.374C55.6775 201.374 45.8164 201.253 45.8164 201.101C45.8164 200.95 55.6775 200.839 67.8471 200.839C80.0166 200.839 89.8884 200.96 89.8884 201.101Z" fill="#232D54"/>
<path d="M169.203 92.5524H42.4126C40.8733 92.5524 39.6255 93.7385 39.6255 95.2016V142.15C39.6255 143.613 40.8733 144.8 42.4126 144.8H169.203C170.743 144.8 171.99 143.613 171.99 142.15V95.2016C171.99 93.7385 170.743 92.5524 169.203 92.5524Z" fill="#E5ECF2"/>
<path d="M67.1344 109.065C67.1365 110.227 66.7758 111.364 66.098 112.331C65.4202 113.299 64.4556 114.053 63.3265 114.5C62.1973 114.946 60.9543 115.064 59.7547 114.838C58.5551 114.613 57.4529 114.054 56.5874 113.233C55.722 112.411 55.1323 111.365 54.893 110.225C54.6536 109.085 54.7754 107.903 55.2429 106.829C55.7104 105.755 56.5025 104.837 57.5191 104.191C58.5357 103.545 59.7311 103.2 60.9539 103.2C62.5913 103.2 64.1617 103.818 65.3204 104.917C66.4792 106.017 67.1316 107.508 67.1344 109.065Z" fill="#FF5454"/>
<path d="M116.302 105.01H73.3042V107.275H116.302V105.01Z" fill="#FF5454"/>
<path d="M156.938 110.167H73.3042V112.432H156.938V110.167Z" fill="white"/>
<path d="M67.1344 127.094C67.1365 128.256 66.7758 129.393 66.098 130.361C65.4202 131.328 64.4556 132.083 63.3265 132.529C62.1973 132.975 60.9543 133.093 59.7547 132.867C58.5551 132.642 57.4529 132.083 56.5874 131.262C55.722 130.441 55.1323 129.394 54.893 128.254C54.6536 127.114 54.7754 125.932 55.2429 124.858C55.7104 123.784 56.5025 122.866 57.5191 122.22C58.5357 121.574 59.7311 121.229 60.9539 121.229C62.5913 121.229 64.1617 121.847 65.3204 122.946C66.4792 124.046 67.1316 125.538 67.1344 127.094Z" fill="#FF5454"/>
<path d="M95.2604 123.039H73.3042V125.304H95.2604V123.039Z" fill="#FF5454"/>
<path d="M156.938 128.196H73.3042V130.461H156.938V128.196Z" fill="white"/>
<path d="M229.519 229.96H67.1666C64.8401 229.96 62.9541 231.753 62.9541 233.964V294.958C62.9541 297.17 64.8401 298.962 67.1666 298.962H229.519C231.846 298.962 233.732 297.17 233.732 294.958V233.964C233.732 231.753 231.846 229.96 229.519 229.96Z" fill="#E5ECF2"/>
<path d="M94.1968 263.299L94.1011 249.304C89.603 249.374 85.2793 250.97 81.9103 253.804C79.7626 255.582 78.1062 257.834 77.0863 260.362C76.0663 262.889 75.7138 265.616 76.0596 268.304C76.134 268.971 76.2511 269.649 76.4 270.326L94.1437 266.524L94.1968 263.299Z" fill="#FF5454"/>
<path d="M112.483 258.991C111.188 256.347 109.183 254.074 106.669 252.401C104.155 250.729 101.222 249.716 98.1646 249.466L97.6008 249.415H97.2391C96.8881 249.415 96.537 249.415 96.1753 249.415H96.0796L96.1753 263.41V266.696L113.919 270.377C114.194 269.185 114.326 267.967 114.313 266.747C114.315 264.064 113.69 261.415 112.483 258.991Z" fill="#FF5454"/>
<g opacity="0.2">
<path opacity="0.2" d="M112.483 258.991C111.188 256.347 109.183 254.074 106.669 252.401C104.155 250.729 101.222 249.716 98.1646 249.466L97.6008 249.415H97.2391C96.8881 249.415 96.537 249.415 96.1753 249.415H96.0796L96.1753 263.41V266.696L113.919 270.377C114.194 269.185 114.326 267.967 114.313 266.747C114.315 264.064 113.69 261.415 112.483 258.991Z" fill="black"/>
</g>
<path d="M95.1437 268.334L77.4106 272.136C78.316 275.978 80.5747 279.412 83.8127 281.867C87.0508 284.323 91.074 285.654 95.2163 285.64C99.3586 285.626 103.372 284.267 106.591 281.789C109.81 279.312 112.043 275.863 112.919 272.015L95.1756 268.334" fill="#FF5454"/>
<g opacity="0.1">
<path opacity="0.1" d="M95.1437 268.334L77.4106 272.136C78.316 275.978 80.5747 279.412 83.8127 281.867C87.0508 284.323 91.074 285.654 95.2163 285.64C99.3586 285.626 103.372 284.267 106.591 281.789C109.81 279.312 112.043 275.863 112.919 272.015L95.1756 268.334" fill="black"/>
</g>
<path d="M216.381 253.49H126.248V257.373H216.381V253.49Z" fill="white"/>
<path d="M216.381 263.723H126.248V267.606H216.381V263.723Z" fill="white"/>
<path d="M174.969 275.038H126.248V278.921H174.969V275.038Z" fill="white"/>
<path d="M431.135 181.03H270.963C266.022 181.03 262.017 184.837 262.017 189.534V335.496C262.017 340.193 266.022 344 270.963 344H431.135C436.076 344 440.082 340.193 440.082 335.496V189.534C440.082 184.837 436.076 181.03 431.135 181.03Z" fill="#E5ECF2"/>
<path d="M280.303 292.673H274.463V294.271H280.303V292.673Z" fill="#232D54"/>
<path d="M295.164 301.227H287.686V302.825H295.164V301.227Z" fill="#232D54"/>
<path d="M321.184 301.227H313.706V302.825H321.184V301.227Z" fill="#232D54"/>
<path d="M347.204 301.227H339.726V302.825H347.204V301.227Z" fill="#232D54"/>
<path d="M373.213 301.227H365.735V302.825H373.213V301.227Z" fill="#232D54"/>
<path d="M399.233 301.227H391.754V302.825H399.233V301.227Z" fill="#232D54"/>
<path d="M425.253 301.227H417.774V302.825H425.253V301.227Z" fill="#232D54"/>
<path d="M280.303 271.297H274.463V272.895H280.303V271.297Z" fill="#232D54"/>
<path d="M280.303 231.052H274.463V232.65H280.303V231.052Z" fill="#232D54"/>
<path d="M280.303 210.829H274.463V212.427H280.303V210.829Z" fill="#232D54"/>
<path d="M280.601 251.175H274.761V252.772H280.601V251.175Z" fill="#232D54"/>
<path d="M425.04 294.25H424.412H422.572L415.498 294.301L389.489 294.382L303.695 294.453H283.08V294.25C283.08 266.949 283.154 242.984 283.175 225.774C283.175 217.199 283.239 210.313 283.26 205.551C283.26 203.195 283.26 201.364 283.26 200.1C283.26 199.494 283.26 199.029 283.26 198.695C283.26 198.361 283.26 198.22 283.26 198.22C283.27 198.378 283.27 198.537 283.26 198.695C283.26 199.029 283.26 199.494 283.26 200.1C283.26 201.364 283.26 203.195 283.26 205.551C283.26 210.303 283.314 217.189 283.346 225.774C283.346 242.964 283.346 266.979 283.441 294.25L283.165 293.998H303.504L389.297 294.078L415.306 294.159L422.38 294.21H424.221L425.04 294.25Z" fill="#232D54"/>
<path d="M426.678 251.973C426.678 252.125 395.829 252.236 357.852 252.236C319.876 252.236 289.016 252.125 289.016 251.973C289.016 251.822 319.865 251.71 357.852 251.71C395.839 251.71 426.678 251.832 426.678 251.973Z" fill="#232D54"/>
<path d="M426.678 231.851C426.678 232.003 395.829 232.114 357.852 232.114C319.876 232.114 289.016 232.003 289.016 231.851C289.016 231.699 319.865 231.588 357.852 231.588C395.839 231.588 426.678 231.709 426.678 231.851Z" fill="#232D54"/>
<path d="M426.678 211.638C426.678 211.779 395.829 211.901 357.852 211.901C319.876 211.901 289.016 211.779 289.016 211.638C289.016 211.496 319.865 211.375 357.852 211.375C395.839 211.375 426.678 211.486 426.678 211.638Z" fill="#232D54"/>
<path d="M426.678 272.096C426.678 272.237 395.829 272.359 357.852 272.359C319.876 272.359 289.016 272.237 289.016 272.096C289.016 271.954 319.865 271.833 357.852 271.833C395.839 271.833 426.678 272.005 426.678 272.096Z" fill="#232D54"/>
<path d="M290.409 289.943V272.096L302.111 254.815L310.057 260.609L326.354 236.533L335.928 242.974L349.31 220.728L360.182 229.151L376.575 199.726L394.137 232.66L408.349 216.178L425.072 211.638V289.943H290.409Z" fill="#FF5454"/>
<path d="M426.678 205.267H426.391H425.518H422.125L409.296 205.338H409.413L395.722 222.457L395.648 222.538H395.541H361.118L361.352 222.407L346.789 245.37C341.864 253.167 337.087 260.7 332.577 267.829L332.375 268.152L332.13 267.839L313.493 243.469H313.865C306.78 253.955 300.94 262.611 296.845 268.658L292.111 275.625L290.845 277.445C290.558 277.849 290.398 278.051 290.398 278.051C290.398 278.051 290.526 277.829 290.792 277.404L291.994 275.554C293.058 273.916 294.643 271.509 296.632 268.526C300.674 262.459 306.461 253.763 313.482 243.247L313.663 242.984L313.855 243.237L332.566 267.566H332.119L346.31 245.108C351.374 237.109 356.267 229.374 360.809 222.215L360.884 222.083H361.033L395.456 222.134L395.286 222.215L409.115 205.207V205.146H409.2L422.029 205.217H425.423H426.295C426.425 205.206 426.556 205.223 426.678 205.267Z" fill="#232D54"/>
<path d="M319.344 249.061C319.354 249.311 319.286 249.558 319.148 249.771C319.009 249.984 318.807 250.152 318.567 250.255C318.327 250.358 318.061 250.39 317.801 250.347C317.542 250.305 317.302 250.19 317.112 250.016C316.922 249.843 316.791 249.62 316.736 249.376C316.681 249.131 316.704 248.876 316.802 248.644C316.9 248.412 317.069 248.213 317.286 248.073C317.504 247.933 317.761 247.858 318.025 247.858C318.367 247.853 318.698 247.976 318.945 248.201C319.192 248.427 319.335 248.736 319.344 249.061Z" fill="#232D54"/>
<path d="M359.054 227.614C359.063 227.864 358.993 228.11 358.853 228.322C358.713 228.533 358.511 228.7 358.27 228.801C358.03 228.902 357.764 228.933 357.505 228.889C357.247 228.846 357.008 228.729 356.819 228.556C356.63 228.382 356.5 228.159 356.446 227.915C356.391 227.67 356.415 227.416 356.513 227.185C356.612 226.953 356.781 226.755 356.998 226.615C357.216 226.476 357.473 226.401 357.735 226.401C357.906 226.398 358.075 226.428 358.234 226.487C358.392 226.547 358.537 226.635 358.659 226.748C358.782 226.861 358.88 226.995 358.948 227.144C359.015 227.292 359.052 227.452 359.054 227.614Z" fill="#232D54"/>
<path d="M389.925 222.336C389.938 222.589 389.87 222.839 389.732 223.055C389.593 223.271 389.39 223.442 389.147 223.547C388.905 223.652 388.636 223.685 388.373 223.643C388.111 223.6 387.868 223.484 387.676 223.309C387.484 223.133 387.352 222.907 387.296 222.66C387.241 222.413 387.265 222.155 387.365 221.921C387.465 221.687 387.637 221.486 387.858 221.346C388.079 221.205 388.34 221.131 388.606 221.133C388.948 221.13 389.277 221.254 389.523 221.479C389.77 221.704 389.914 222.011 389.925 222.336Z" fill="#232D54"/>
<path d="M296.228 330.44C300.946 330.44 304.77 326.941 304.77 322.624C304.77 318.307 300.946 314.807 296.228 314.807C291.51 314.807 287.686 318.307 287.686 322.624C287.686 326.941 291.51 330.44 296.228 330.44Z" fill="white"/>
<path d="M417.774 317.386H317.439V320.308H417.774V317.386Z" fill="white"/>
<path d="M359.097 324.697H317.439V327.619H359.097V324.697Z" fill="white"/>
<path d="M495.738 54.4514H388.021C385.118 54.4514 382.766 56.6878 382.766 59.4466V142.666C382.766 145.425 385.118 147.661 388.021 147.661H495.738C498.64 147.661 500.993 145.425 500.993 142.666V59.4466C500.993 56.6878 498.64 54.4514 495.738 54.4514Z" fill="#E5ECF2"/>
<path d="M409.775 91.7637H403.403V137.499H409.775V91.7637Z" fill="#FF5454"/>
<path d="M438.741 88.0526H432.369V137.499H438.741V88.0526Z" fill="#FF5454"/>
<path d="M468.74 81.7733H462.368V137.499H468.74V81.7733Z" fill="#FF5454"/>
<path d="M454.655 115.233H448.283V137.499H454.655V115.233Z" fill="#FF5454"/>
<g opacity="0.2">
<path opacity="0.2" d="M454.655 115.233H448.283V137.499H454.655V115.233Z" fill="black"/>
</g>
<path d="M417.2 86.8696H410.828V137.509H417.2V86.8696Z" fill="#FF5454"/>
<g opacity="0.1">
<path opacity="0.1" d="M417.2 86.8696H410.828V137.509H417.2V86.8696Z" fill="black"/>
</g>
<path d="M446.687 76.2625H440.315V137.509H446.687V76.2625Z" fill="#FF5454"/>
<g opacity="0.1">
<path opacity="0.1" d="M446.687 76.2625H440.315V137.509H446.687V76.2625Z" fill="black"/>
</g>
<path d="M485.185 76.2625H478.813V137.509H485.185V76.2625Z" fill="#FF5454"/>
<g opacity="0.2">
<path opacity="0.2" d="M485.185 76.2625H478.813V137.509H485.185V76.2625Z" fill="black"/>
</g>
<path d="M476.867 64.1688H470.495V137.509H476.867V64.1688Z" fill="#FF5454"/>
<g opacity="0.1">
<path opacity="0.1" d="M476.867 64.1688H470.495V137.509H476.867V64.1688Z" fill="black"/>
</g>
<path d="M424.997 105.364H418.625V137.499H424.997V105.364Z" fill="#FF5454"/>
<g opacity="0.2">
<path opacity="0.2" d="M424.997 105.364H418.625V137.499H424.997V105.364Z" fill="black"/>
</g>
<path d="M494.302 140.28C494.302 140.421 471.559 140.542 443.518 140.542C415.477 140.542 392.723 140.421 392.723 140.28C392.723 140.138 415.455 140.017 443.518 140.017C471.58 140.017 494.302 140.138 494.302 140.28Z" fill="#232D54"/>
<path d="M393.659 129.369H389.765V130.593H393.659V129.369Z" fill="#232D54"/>
<path d="M393.659 113.089H389.765V114.313H393.659V113.089Z" fill="#232D54"/>
<path d="M393.659 82.4608H389.765V83.6843H393.659V82.4608Z" fill="#232D54"/>
<path d="M393.659 67.0709H389.765V68.2944H393.659V67.0709Z" fill="#232D54"/>
<path d="M393.861 97.78H389.967V99.0035H393.861V97.78Z" fill="#232D54"/>
<path d="M364.458 46.8677H250.06C248.163 46.8677 246.625 48.33 246.625 50.1338V75.9186C246.625 77.7224 248.163 79.1847 250.06 79.1847H364.458C366.356 79.1847 367.894 77.7224 367.894 75.9186V50.1338C367.894 48.33 366.356 46.8677 364.458 46.8677Z" fill="#FF5454"/>
<path d="M272.187 68.4258C271.271 69.5098 270.039 70.3116 268.644 70.7296C267.249 71.1476 265.756 71.1631 264.352 70.7742C262.948 70.3853 261.697 69.6094 260.757 68.5446C259.817 67.4798 259.23 66.174 259.071 64.7924C258.912 63.4107 259.188 62.0151 259.863 60.7822C260.538 59.5493 261.583 58.5344 262.865 57.8659C264.147 57.1974 265.608 56.9052 267.065 57.0264C268.522 57.1476 269.908 57.6766 271.048 58.5467C272.565 59.7211 273.535 61.4158 273.748 63.2644C273.961 65.1131 273.4 66.9672 272.187 68.4258Z" fill="white"/>
<path d="M266.41 71.0751C264.575 70.9827 262.841 70.2488 261.541 69.0144C260.241 67.7799 259.467 66.1322 259.368 64.3882C259.269 62.6441 259.852 60.9268 261.005 59.5666C262.158 58.2064 263.799 57.2993 265.612 57.0198C265.885 57.005 266.159 57.005 266.432 57.0198C267.823 57.033 269.183 57.4165 270.356 58.1268C271.53 58.8371 272.471 59.8458 273.072 61.0386C273.674 62.2313 273.911 63.5603 273.759 64.875C273.606 66.1896 273.069 67.4372 272.208 68.4764C271.6 69.2005 270.846 69.803 269.992 70.2491C269.138 70.6951 268.199 70.9758 267.229 71.0751C266.957 71.0899 266.683 71.0899 266.41 71.0751ZM266.41 57.0299C266.137 57.0151 265.864 57.0151 265.591 57.0299C264.388 57.1569 263.237 57.5638 262.239 58.2144C261.242 58.8651 260.428 59.7395 259.87 60.7604C259.313 61.7812 259.029 62.917 259.043 64.0671C259.057 65.2172 259.37 66.3463 259.952 67.3543C260.535 68.3623 261.37 69.2183 262.384 69.8464C263.398 70.4745 264.559 70.8554 265.764 70.9553C266.97 71.0553 268.182 70.8712 269.295 70.4194C270.408 69.9676 271.386 69.2621 272.144 68.3652C273.012 67.3369 273.556 66.0967 273.715 64.7871C273.873 63.4776 273.64 62.1522 273.04 60.9634C272.441 59.7746 271.501 58.7709 270.328 58.0679C269.155 57.3648 267.797 56.991 266.41 56.9895V57.0299Z" fill="#232D54"/>
<path d="M270.57 61.6813C269.385 63.149 268.052 64.5036 266.591 65.726L265.623 66.6259L265.421 66.8079L265.24 66.6259C264.137 65.6651 263.143 64.5976 262.272 63.4407C263.49 64.2678 264.613 65.2133 265.623 66.2619H265.24L266.208 65.3518C267.541 64.0042 269.001 62.7756 270.57 61.6813Z" fill="#FF5454"/>
<path d="M356.054 60.6701C356.054 60.8218 340.64 60.933 321.631 60.933C302.621 60.933 287.218 60.8117 287.218 60.6701C287.218 60.5286 302.632 60.4072 321.652 60.4072C340.672 60.4072 356.054 60.5185 356.054 60.6701Z" fill="white"/>
<path d="M327.811 67.0506C327.811 67.2023 318.907 67.3236 307.908 67.3236C296.909 67.3236 288.005 67.2023 288.005 67.0506C288.005 66.8989 296.919 66.7877 307.908 66.7877C318.897 66.7877 327.811 66.9091 327.811 67.0506Z" fill="white"/>
</svg>
